<?xml version="1.0" encoding="UTF-8"?>
<svg viewBox="0 0 900 700" xmlns="http://www.w3.org/2000/svg">
  <!-- Background -->
  <rect width="900" height="700" fill="#f9fafb" rx="8"/>
  
  <!-- Title -->
  <text x="450" y="40" text-anchor="middle" font-size="28" font-weight="bold" fill="#111827">
    KAPS Framework - Gen AI Adoption Portfolios
  </text>
  
  <text x="450" y="70" text-anchor="middle" font-size="16" fill="#6b7280">
    Systematic categorization of business use cases with tailored architectural components
  </text>
  
  <!-- Central dividing lines -->
  <line x1="450" y1="100" x2="450" y2="600" stroke="#e5e7eb" stroke-width="2"/>
  <line x1="50" y1="350" x2="850" y2="350" stroke="#e5e7eb" stroke-width="2"/>
  
  <!-- Knowledge Portfolio (Top Left) -->
  <g transform="translate(50, 100)">
    <!-- Background -->
    <rect x="0" y="0" width="380" height="230" rx="12" fill="#eff6ff" stroke="#3b82f6" stroke-width="1.5"/>
    
    <!-- Header -->
    <rect x="0" y="0" width="380" height="50" rx="12" fill="#3b82f6"/>
    <text x="20" y="32" font-size="22" font-weight="600" fill="#ffffff">Knowledge</text>
    <text x="360" y="32" text-anchor="end" font-size="14" fill="#dbeafe">Portfolio 1</text>
    
    <!-- Content -->
    <text x="20" y="80" font-size="14" font-weight="500" fill="#1e40af">Transform Unstructured Content</text>
    
    <!-- Key Capabilities -->
    <g transform="translate(20, 100)">
      <circle cx="7" cy="7" r="3" fill="#3b82f6"/>
      <text x="20" y="10" font-size="13" fill="#374151">Document Intelligence</text>
    </g>
    <g transform="translate(20, 125)">
      <circle cx="7" cy="7" r="3" fill="#3b82f6"/>
      <text x="20" y="10" font-size="13" fill="#374151">Conversational AI</text>
    </g>
    <g transform="translate(20, 150)">
      <circle cx="7" cy="7" r="3" fill="#3b82f6"/>
      <text x="20" y="10" font-size="13" fill="#374151">Content Generation</text>
    </g>
    <g transform="translate(20, 175)">
      <circle cx="7" cy="7" r="3" fill="#3b82f6"/>
      <text x="20" y="10" font-size="13" fill="#374151">Semantic Search</text>
    </g>
    
    <!-- Metrics -->
    <rect x="240" y="90" width="120" height="120" rx="8" fill="#ffffff" stroke="#dbeafe" stroke-width="1"/>
    <text x="250" y="110" font-size="11" font-weight="600" fill="#6b7280">METRICS</text>
    <text x="250" y="130" font-size="10" fill="#6b7280">Time: 2-4 weeks</text>
    <text x="250" y="148" font-size="10" fill="#6b7280">Complexity: Low</text>
    <text x="250" y="166" font-size="10" fill="#6b7280">ROI: Immediate</text>
    <text x="250" y="184" font-size="10" fill="#059669">✓ Quick Wins</text>
    <text x="250" y="202" font-size="10" fill="#059669">✓ High Adoption</text>
  </g>
  
  <!-- Analytics Portfolio (Top Right) -->
  <g transform="translate(470, 100)">
    <!-- Background -->
    <rect x="0" y="0" width="380" height="230" rx="12" fill="#faf5ff" stroke="#8b5cf6" stroke-width="1.5"/>
    
    <!-- Header -->
    <rect x="0" y="0" width="380" height="50" rx="12" fill="#8b5cf6"/>
    <text x="20" y="32" font-size="22" font-weight="600" fill="#ffffff">Analytics</text>
    <text x="360" y="32" text-anchor="end" font-size="14" fill="#e9d5ff">Portfolio 2</text>
    
    <!-- Content -->
    <text x="20" y="80" font-size="14" font-weight="500" fill="#6d28d9">Extract Insights from Structured Data</text>
    
    <!-- Key Capabilities -->
    <g transform="translate(20, 100)">
      <circle cx="7" cy="7" r="3" fill="#8b5cf6"/>
      <text x="20" y="10" font-size="13" fill="#374151">Predictive Analytics</text>
    </g>
    <g transform="translate(20, 125)">
      <circle cx="7" cy="7" r="3" fill="#8b5cf6"/>
      <text x="20" y="10" font-size="13" fill="#374151">Anomaly Detection</text>
    </g>
    <g transform="translate(20, 150)">
      <circle cx="7" cy="7" r="3" fill="#8b5cf6"/>
      <text x="20" y="10" font-size="13" fill="#374151">Customer Intelligence</text>
    </g>
    <g transform="translate(20, 175)">
      <circle cx="7" cy="7" r="3" fill="#8b5cf6"/>
      <text x="20" y="10" font-size="13" fill="#374151">BI Automation</text>
    </g>
    
    <!-- Metrics -->
    <rect x="240" y="90" width="120" height="120" rx="8" fill="#ffffff" stroke="#e9d5ff" stroke-width="1"/>
    <text x="250" y="110" font-size="11" font-weight="600" fill="#6b7280">METRICS</text>
    <text x="250" y="130" font-size="10" fill="#6b7280">Time: 4-8 weeks</text>
    <text x="250" y="148" font-size="10" fill="#6b7280">Complexity: Medium</text>
    <text x="250" y="166" font-size="10" fill="#6b7280">ROI: High</text>
    <text x="250" y="184" font-size="10" fill="#059669">✓ Data Excellence</text>
    <text x="250" y="202" font-size="10" fill="#059669">✓ Insights at Scale</text>
  </g>
  
  <!-- Process Portfolio (Bottom Left) -->
  <g transform="translate(50, 370)">
    <!-- Background -->
    <rect x="0" y="0" width="380" height="230" rx="12" fill="#f0fdf4" stroke="#10b981" stroke-width="1.5"/>
    
    <!-- Header -->
    <rect x="0" y="0" width="380" height="50" rx="12" fill="#10b981"/>
    <text x="20" y="32" font-size="22" font-weight="600" fill="#ffffff">Process</text>
    <text x="360" y="32" text-anchor="end" font-size="14" fill="#bbf7d0">Portfolio 3</text>
    
    <!-- Content -->
    <text x="20" y="80" font-size="14" font-weight="500" fill="#047857">Automate Cognitive Tasks & Workflows</text>
    
    <!-- Key Capabilities -->
    <g transform="translate(20, 100)">
      <circle cx="7" cy="7" r="3" fill="#10b981"/>
      <text x="20" y="10" font-size="13" fill="#374151">Process Automation</text>
    </g>
    <g transform="translate(20, 125)">
      <circle cx="7" cy="7" r="3" fill="#10b981"/>
      <text x="20" y="10" font-size="13" fill="#374151">Decision Intelligence</text>
    </g>
    <g transform="translate(20, 150)">
      <circle cx="7" cy="7" r="3" fill="#10b981"/>
      <text x="20" y="10" font-size="13" fill="#374151">Workflow Optimization</text>
    </g>
    <g transform="translate(20, 175)">
      <circle cx="7" cy="7" r="3" fill="#10b981"/>
      <text x="20" y="10" font-size="13" fill="#374151">Compliance Automation</text>
    </g>
    
    <!-- Metrics -->
    <rect x="240" y="90" width="120" height="120" rx="8" fill="#ffffff" stroke="#bbf7d0" stroke-width="1"/>
    <text x="250" y="110" font-size="11" font-weight="600" fill="#6b7280">METRICS</text>
    <text x="250" y="130" font-size="10" fill="#6b7280">Time: 6-12 weeks</text>
    <text x="250" y="148" font-size="10" fill="#6b7280">Complexity: High</text>
    <text x="250" y="166" font-size="10" fill="#6b7280">ROI: Very High</text>
    <text x="250" y="184" font-size="10" fill="#059669">✓ Process Excellence</text>
    <text x="250" y="202" font-size="10" fill="#059669">✓ Strategic Impact</text>
  </g>
  
  <!-- Systems Portfolio (Bottom Right) -->
  <g transform="translate(470, 370)">
    <!-- Background -->
    <rect x="0" y="0" width="380" height="230" rx="12" fill="#fff7ed" stroke="#f97316" stroke-width="1.5"/>
    
    <!-- Header -->
    <rect x="0" y="0" width="380" height="50" rx="12" fill="#f97316"/>
    <text x="20" y="32" font-size="22" font-weight="600" fill="#ffffff">Systems</text>
    <text x="360" y="32" text-anchor="end" font-size="14" fill="#fed7aa">Portfolio 4</text>
    
    <!-- Content -->
    <text x="20" y="80" font-size="14" font-weight="500" fill="#c2410c">Accelerate Development & Infrastructure</text>
    
    <!-- Key Capabilities -->
    <g transform="translate(20, 100)">
      <circle cx="7" cy="7" r="3" fill="#f97316"/>
      <text x="20" y="10" font-size="13" fill="#374151">Code Generation</text>
    </g>
    <g transform="translate(20, 125)">
      <circle cx="7" cy="7" r="3" fill="#f97316"/>
      <text x="20" y="10" font-size="13" fill="#374151">Automated Testing</text>
    </g>
    <g transform="translate(20, 150)">
      <circle cx="7" cy="7" r="3" fill="#f97316"/>
      <text x="20" y="10" font-size="13" fill="#374151">Infrastructure Optimization</text>
    </g>
    <g transform="translate(20, 175)">
      <circle cx="7" cy="7" r="3" fill="#f97316"/>
      <text x="20" y="10" font-size="13" fill="#374151">DevOps Intelligence</text>
    </g>
    
    <!-- Metrics -->
    <rect x="240" y="90" width="120" height="120" rx="8" fill="#ffffff" stroke="#fed7aa" stroke-width="1"/>
    <text x="250" y="110" font-size="11" font-weight="600" fill="#6b7280">METRICS</text>
    <text x="250" y="130" font-size="10" fill="#6b7280">Time: 8-16 weeks</text>
    <text x="250" y="148" font-size="10" fill="#6b7280">Complexity: Very High</text>
    <text x="250" y="166" font-size="10" fill="#6b7280">ROI: Transformative</text>
    <text x="250" y="184" font-size="10" fill="#059669">✓ Tech Excellence</text>
    <text x="250" y="202" font-size="10" fill="#059669">✓ Future Ready</text>
  </g>
  
  <!-- Center labels for axes -->
  <text x="450" y="95" text-anchor="middle" font-size="12" font-weight="600" fill="#6b7280">BUSINESS FOCUS</text>
  <text x="20" y="355" font-size="12" font-weight="600" fill="#6b7280" transform="rotate(-90 20 355)">TECHNICAL DEPTH</text>
  
  <!-- Quadrant labels -->
  <text x="225" y="345" text-anchor="middle" font-size="11" fill="#9ca3af" font-style="italic">Operational Excellence</text>
  <text x="675" y="345" text-anchor="middle" font-size="11" fill="#9ca3af" font-style="italic">Data-Driven Insights</text>
  <text x="225" y="365" text-anchor="middle" font-size="11" fill="#9ca3af" font-style="italic">Process Transformation</text>
  <text x="675" y="365" text-anchor="middle" font-size="11" fill="#9ca3af" font-style="italic">Technology Acceleration</text>
  
  <!-- Bottom progression arrow -->
  <defs>
    <marker id="progressArrow" markerWidth="10" markerHeight="7" refX="9" refY="3.5" orient="auto">
      <polygon points="0 0, 10 3.5, 0 7" fill="#6b7280"/>
    </marker>
    <linearGradient id="progressGradient" x1="0%" y1="0%" x2="100%" y2="0%">
      <stop offset="0%" style="stop-color:#3b82f6;stop-opacity:0.6" />
      <stop offset="33%" style="stop-color:#8b5cf6;stop-opacity:0.6" />
      <stop offset="66%" style="stop-color:#10b981;stop-opacity:0.6" />
      <stop offset="100%" style="stop-color:#f97316;stop-opacity:0.6" />
    </linearGradient>
  </defs>
  
  <!-- Adoption Journey -->
  <text x="450" y="640" text-anchor="middle" font-size="14" font-weight="600" fill="#374151">Adoption Journey</text>
  <rect x="150" y="650" width="600" height="4" fill="url(#progressGradient)" rx="2"/>
  <path d="M 150 652 L 750 652" stroke="#6b7280" stroke-width="1" marker-end="url(#progressArrow)" opacity="0.5"/>
  
  <text x="150" y="675" text-anchor="start" font-size="11" fill="#6b7280">Quick Wins</text>
  <text x="450" y="675" text-anchor="middle" font-size="11" fill="#6b7280">Maturity Growth</text>
  <text x="750" y="675" text-anchor="end" font-size="11" fill="#6b7280">Full Transformation</text>
</svg>