<?xml version="1.0" encoding="UTF-8" standalone="no"?>
<!-- Created with Inkscape (http://www.inkscape.org/) -->

<svg
   width="132.73706mm"
   height="132.36461mm"
   viewBox="0 0 132.73706 132.36461"
   version="1.1"
   id="svg1"
   xml:space="preserve"
   xmlns="http://www.w3.org/2000/svg"
   xmlns:svg="http://www.w3.org/2000/svg"><defs
     id="defs1" /><g
     id="layer1"
     transform="translate(283.52988,69.232475)"><rect
       style="fill:#cee8e7;fill-opacity:1;stroke:none;stroke-width:0.529167;stroke-linecap:square"
       id="rect10"
       width="132.73706"
       height="132.36461"
       x="-283.52988"
       y="-69.232475"
       ry="11.974859" /><path
       style="fill:#f9ab65"
       d="m -62.35494,180.03344 c 0.191,-0.0764 0.4192,-0.067 0.50712,0.0209 0.0879,0.0879 -0.0684,0.15045 -0.34727,0.13896 -0.30822,-0.0127 -0.37091,-0.0754 -0.15985,-0.15985 z m -9.16903,-2.72968 c 0,-0.3638 0.0601,-0.51263 0.13345,-0.33072 0.0734,0.1819 0.0734,0.47955 0,0.66145 -0.0734,0.1819 -0.13345,0.0331 -0.13345,-0.33073 z m -16.29664,-2.30369 c -0.14358,-0.37708 -0.11319,-0.40747 0.14811,-0.14811 0.18083,0.17947 0.26212,0.39297 0.18066,0.47443 -0.0815,0.0815 -0.22941,-0.0654 -0.32877,-0.32632 z m 5.40695,-29.96212 -2.51354,-1.53554 -0.0757,-2.5462 c -0.0902,-3.03288 -0.21062,-2.98449 2.87961,-1.15713 l 2.34903,1.38906 0.003,2.71198 c 0.002,1.49159 -0.0265,2.70329 -0.0629,2.69267 -0.0364,-0.0106 -1.19724,-0.71029 -2.57969,-1.55484 z m 3.71048,-1.11269 0.006,-2.73712 2.39539,-1.41271 c 2.8268,-1.66716 2.57691,-1.77601 2.78922,1.21496 l 0.17068,2.40451 -1.42719,0.9049 c -0.78495,0.4977 -1.99273,1.23288 -2.68395,1.63374 l -1.25677,0.72884 z m -9.92819,-2.46408 -2.38125,-1.40268 -0.0757,-2.70709 -0.0757,-2.70709 1.26637,0.72961 c 0.6965,0.40129 1.89144,1.0978 2.65542,1.54779 l 1.38907,0.81818 v 2.58401 c 0,1.42121 -0.0893,2.57411 -0.19844,2.56199 -0.10914,-0.0121 -1.27,-0.65324 -2.57969,-1.42472 z m 16.00729,-1.14567 v -2.59243 l 2.57969,-1.51359 2.57969,-1.5136 0.0767,2.43253 c 0.0422,1.33789 0.0245,2.56851 -0.0393,2.73471 -0.10849,0.28272 -4.67365,3.0448 -5.03245,3.0448 -0.0904,0 -0.16434,-1.16659 -0.16434,-2.59242 z m -144.11355,1.24006 c -2.5117,-0.71866 -5.57296,-4.90539 -9.74812,-13.33201 -5.01716,-10.12602 -8.78906,-14.29056 -13.75186,-15.18339 l -1.05833,-0.1904 2.24895,-0.89116 c 6.95329,-2.75529 11.15956,0.1088 17.14382,11.67337 3.46099,6.68837 5.93194,10.10469 8.89428,12.29724 2.03991,1.50982 2.01711,1.41699 0.78689,3.20321 -1.4077,2.04392 -2.94947,2.87125 -4.51563,2.42314 z m 4.64207,-1.08265 c 1.47344,-1.95156 2.79453,-4.9117 5.05351,-11.32332 3.14426,-8.92427 6.98936,-15.9967 12.58531,-23.14862 1.84635,-2.35972 1.91927,-2.12639 -1.34026,-4.28869 l -2.7875,-1.849187 3.91198,-1.52734 c 11.85268,-4.62759 17.88128,-6.770836 18.30632,-6.50814 0.2634,0.16279 0.24723,1.59367 -0.0797,7.05528 -0.22557,3.768087 -0.49052,8.789787 -0.58879,11.159317 -0.0983,2.36953 -0.2644,4.36123 -0.36918,4.42598 -0.10478,0.0648 -1.18836,-0.66236 -2.40795,-1.61581 -1.21959,-0.95346 -3.20085,-2.40186 -4.40279,-3.21866 l -2.18536,-1.48509 -0.94564,0.90933 c -4.53089,4.35693 -8.96874,11.52399 -12.27692,19.82705 -3.38181,8.48785 -6.32364,11.46777 -12.66468,12.82866 l -0.88919,0.19084 z m 130.21107,-1.5669 c -1.23693,-0.73591 -2.27955,-1.36767 -2.31694,-1.40391 -0.0374,-0.0363 1.06927,-0.73399 2.45924,-1.55055 l 2.52722,-1.48465 2.43555,1.47181 c 1.33955,0.8095 2.46231,1.49525 2.49502,1.5239 0.13219,0.1158 -4.67625,2.79882 -5.00096,2.79045 -0.1926,-0.005 -1.36221,-0.61114 -2.59913,-1.34705 z m 15.34583,-2.05622 v -2.64977 l 1.78594,-1.03583 c 0.98226,-0.5697 2.17289,-1.23286 2.64583,-1.47367 l 0.8599,-0.43785 v 2.59469 2.5947 l -2.4474,1.42775 c -1.34607,0.78526 -2.53669,1.4732 -2.64583,1.52875 -0.10914,0.0556 -0.19844,-1.09139 -0.19844,-2.54877 z m -28.37287,0.9566 -2.31141,-1.38076 -0.004,-2.57969 c -0.002,-1.41882 0.0468,-2.57968 0.1086,-2.57968 0.0618,0 1.22263,0.64231 2.57969,1.42736 l 2.46739,1.42735 0.0261,2.54139 c 0.0308,3.00579 0.1622,2.95337 -2.86667,1.14403 z m 6.73318,-2.49021 -2.4574,-1.4648 1.79594,-1.05252 c 3.49847,-2.0503 2.91377,-2.01814 5.90452,-0.32476 1.45106,0.8216 2.6383,1.53184 2.6383,1.57831 0,0.19907 -4.72688,2.76817 -5.05849,2.74933 -0.20101,-0.0114 -1.4713,-0.67992 -2.82287,-1.48556 z m 12.85655,0.47593 c -3.27093,-1.91143 -3.24893,-1.60104 -0.23551,-3.32219 l 2.64383,-1.51007 2.52017,1.40998 c 1.3861,0.77548 2.51892,1.4695 2.51739,1.54226 -0.004,0.20314 -4.9875,2.91042 -5.35714,2.91042 -0.179,0 -1.11893,-0.46368 -2.08874,-1.0304 z m -137.20851,-0.66733 c -2.78241,-2.04829 -5.1298,-5.29916 -8.51672,-11.79469 -4.59522,-8.81285 -7.75236,-12.21464 -12.1647,-13.10735 l -1.44078,-0.29151 2.36682,-0.99223 c 4.213,-1.76621 5.38226,-2.08325 7.16615,-1.94309 4.49264,0.35298 8.14941,3.8257 12.32288,11.70264 2.06369,3.89498 2.87363,5.23261 4.4921,7.41884 l 0.98714,1.33343 -1.46999,3.95824 c -0.80849,2.17703 -1.53216,4.1666 -1.60814,4.42126 -0.19584,0.65636 -0.35719,0.60304 -2.13476,-0.70554 z m 118.3804,-3.23587 c -1.42233,-0.80839 -2.54845,-1.50408 -2.5025,-1.54597 0.046,-0.0419 1.1685,-0.73179 2.49456,-1.5331 l 2.41102,-1.45693 2.54992,1.47986 c 2.92447,1.69723 2.85809,1.59808 1.55569,2.32361 -0.54458,0.30336 -1.64996,0.92299 -2.4564,1.37695 l -1.46625,0.82538 z m 24.76302,0.0777 c -1.33714,-0.74902 -2.43392,-1.43389 -2.4373,-1.52194 -0.008,-0.21511 4.69064,-2.88262 5.07783,-2.88262 0.1679,0 1.36202,0.62508 2.65359,1.38906 2.69962,1.59686 2.77505,1.30546 -0.84908,3.28008 l -2.01387,1.09727 z m -182.21729,-7.1165 c 1.35829,-6.31842 5.60542,-10.78177 10.25948,-10.78177 2.43183,0 2.39431,-0.31122 0.45492,3.77363 l -1.57821,3.32412 -4.42351,2.27196 c -5.04028,2.58873 -4.96049,2.56483 -4.71268,1.41206 z m 153.4109,-17.39635 c 0,-1.38245 0.0446,-1.948 0.0991,-1.25677 0.0545,0.69122 0.0545,1.82232 0,2.51354 -0.0545,0.69122 -0.0991,0.12568 -0.0991,-1.25677 z m 5.01099,-61.647912 c 0,-0.800365 0.0496,-1.127787 0.11022,-0.727604 0.0606,0.400182 0.0606,1.055026 0,1.455208 -0.0606,0.400182 -0.11022,0.07276 -0.11022,-0.727604 z m 4.75528,-0.264583 c 0,-0.654844 0.0516,-0.922735 0.11466,-0.595313 0.0631,0.327422 0.0631,0.863203 0,1.190625 -0.0631,0.327422 -0.11466,0.05953 -0.11466,-0.595312 z m 7.95439,-0.79375 c 0,-1.091407 0.0467,-1.537891 0.10378,-0.992188 0.0571,0.545703 0.0571,1.438672 0,1.984375 -0.0571,0.545703 -0.10378,0.09922 -0.10378,-0.992187 z m -17.08844,1.147688 c 0.18191,-0.0734 0.47956,-0.0734 0.66146,0 0.1819,0.0734 0.0331,0.133452 -0.33073,0.133452 -0.3638,0 -0.51263,-0.06005 -0.33073,-0.133452 z m 1.19632,-38.1148892 -3.49498,-2.042203 -0.0744,-6.8874843 c -0.0409,-3.7881164 -0.0421,-9.1653605 -0.003,-11.9494315 l 0.0717,-5.061948 3.55699,2.019239 3.55699,2.01924 0.009,11.972395 c 0.005,6.5848178 -0.0216,11.9723948 -0.0594,11.9723948 -0.0378,0 -1.64141,-0.918991 -3.56366,-2.042202 z m 4.69467,-9.9301928 0.004,-11.972395 3.3337,-1.950772 c 3.63093,-2.124701 3.79027,-2.133787 3.79798,-0.216576 0.0226,5.62831 1.71449,7.8294906 3.54695,4.614744 2.0892,-3.665137 3.02305,-3.819235 4.03812,-0.666345 2.0129,6.2522253 6.87956,5.5675788 8.41177,-1.183375 0.70497,-3.106145 1.7296,-16.067411 1.73298,-21.921772 0.001,-1.833715 0.091,-2.352683 0.46434,-2.679911 0.46257,-0.405425 6.86428,-4.174117 7.09038,-4.174117 0.43492,0 0.0942,33.2260005 -0.34351,33.4992808 -0.25466,0.1589894 -7.24958,4.2517266 -15.54427,9.0949715 -8.29469,4.8432445 -15.3161,8.9685215 -15.60314,9.1672805 -0.28704,0.19876 -0.61446,0.361381 -0.7276,0.361381 -0.11315,0 -0.20391,-5.387577 -0.20171,-11.9723948 z m -25.88159,8.6651038 c 0.005,-0.436563 0.0647,-0.583125 0.13177,-0.325694 0.0671,0.257431 0.0627,0.614619 -0.01,0.79375 -0.0725,0.179132 -0.12736,-0.03149 -0.12197,-0.468056 z m 43.23609,-16.0323009 c -0.80982,-0.6370029 -1.59804,-2.0731559 -1.87407,-3.4145729 -0.1048,-0.509323 -0.3445,-1.169973 -0.53266,-1.468111 -0.28982,-0.459194 -0.24786,-0.823251 0.27441,-2.381249 1.09387,-3.263164 1.24625,-4.919861 1.41342,-15.367189 l 0.16143,-10.088425 3.43959,1.96578 c 1.89177,1.081178 3.54764,2.073813 3.67972,2.205855 0.39604,0.395942 -0.63954,18.041618 -1.31497,22.406094 -0.85521,5.526213 -2.93479,7.9605024 -5.24687,6.1418179 z m -8.54136,-2.0011669 c 0.0957,-0.09575 0.0578,-0.314198 -0.0843,-0.485439 -0.28627,-0.344936 -0.9513,-5.622711 -0.73566,-5.838348 0.0747,-0.07468 1.02265,0.427786 2.1066,1.116586 l 1.97082,1.252362 -1.34095,2.052171 c -0.73752,1.128694 -1.50962,2.057703 -1.71578,2.064466 -0.20615,0.0068 -0.29648,-0.06605 -0.20073,-0.161798 z m -12.79278,-5.284102 c -1.66971,-0.964717 -3.07576,-1.858427 -3.12457,-1.986024 -0.0488,-0.127596 -0.21603,-0.153324 -0.37161,-0.05717 -0.15723,0.09718 -0.20654,0.05133 -0.11103,-0.103215 0.56646,-0.916545 7.10349,-4.099299 7.78333,-3.789547 1.30457,0.594402 6.14951,3.53055 6.14951,3.726747 0,0.253554 -6.50613,3.963241 -6.95082,3.963241 -0.18645,0 -1.70511,-0.789313 -3.37481,-1.754029 z m 25.01001,-24.06582 c -1.89177,-1.083765 -3.47048,-2.061118 -3.50824,-2.171897 -0.0378,-0.110778 1.55011,-1.124114 3.5286,-2.251856 l 3.59724,-2.050441 3.03766,1.763946 c 1.67072,0.97017 3.19406,1.920348 3.38522,2.111507 0.19116,0.191158 0.42127,0.273855 0.51135,0.18377 0.0901,-0.09008 0.15988,-0.05465 0.1551,0.07874 -0.007,0.199825 -6.5036,4.103205 -7.08829,4.258996 -0.0985,0.02624 -1.72687,-0.839006 -3.61864,-1.92277 z"
       id="path4" /><path
       style="fill:#8f74b5"
       d="m -72.51371,179.591 c -0.0757,-0.19723 -0.10012,-1.11996 -0.0543,-2.05052 l 0.0833,-1.69192 0.12877,2.05113 c 0.12885,2.0526 0.0999,2.36278 -0.15775,1.69131 z m -165.14897,-0.69974 c 0,-0.50932 0.0545,-0.71768 0.121,-0.46302 0.0666,0.25467 0.0666,0.67138 0,0.92605 -0.0665,0.25466 -0.121,0.0463 -0.121,-0.46303 z m 1.02764,-0.31511 c -0.0169,-0.68264 0.0635,-1.29936 0.17859,-1.3705 0.11511,-0.0711 0.16778,0.30878 0.11704,0.84428 -0.15501,1.63613 -0.26342,1.82908 -0.29563,0.52622 z m 12.93389,1.00897 c 0,-0.0549 0.20836,-0.2633 0.46302,-0.46302 0.41964,-0.32911 0.429,-0.31975 0.0999,0.0999 -0.34565,0.44073 -0.56292,0.58089 -0.56292,0.36313 z m 5.97013,-0.24225 c 0.0994,-0.26093 0.24731,-0.40778 0.32877,-0.32632 0.0815,0.0815 1.7e-4,0.29496 -0.18065,0.47444 -0.26131,0.25936 -0.2917,0.22897 -0.14812,-0.14812 z m 1.40445,-0.12088 c -0.32911,-0.41964 -0.31975,-0.429 0.0999,-0.0999 0.44073,0.34564 0.58089,0.56291 0.36313,0.56291 -0.0549,0 -0.2633,-0.20835 -0.46302,-0.46302 z m 3.85131,-0.0661 c 0,-0.3427 0.0895,-0.43215 0.2608,-0.26081 0.17135,0.17135 0.17135,0.35026 0,0.52161 -0.17135,0.17135 -0.2608,0.0819 -0.2608,-0.2608 z m 146.288,-1.19063 c 10e-4,-1.01864 0.049,-1.40294 0.10627,-0.85399 0.0573,0.54895 0.0563,1.38238 -0.002,1.85208 -0.0584,0.4697 -0.10531,0.0206 -0.10414,-0.99809 z m -164.10759,1.03629 c 0.0127,-0.30823 0.0754,-0.37092 0.15986,-0.15985 0.0764,0.19099 0.067,0.41919 -0.0209,0.50711 -0.0879,0.0879 -0.15046,-0.0684 -0.13897,-0.34726 z m 158.79049,-0.37483 c 0,-0.50932 0.0545,-0.71768 0.121,-0.46302 0.0666,0.25466 0.0666,0.67138 0,0.92604 -0.0666,0.25466 -0.121,0.0463 -0.121,-0.46302 z m -154.11502,0.35394 c 0.1819,-0.0734 0.47956,-0.0734 0.66146,0 0.1819,0.0734 0.0331,0.13345 -0.33073,0.13345 -0.3638,0 -0.51263,-0.06 -0.33073,-0.13345 z m 6.63112,-0.006 c 0.19099,-0.0764 0.4192,-0.067 0.50712,0.0209 0.0879,0.0879 -0.0683,0.15045 -0.34727,0.13896 -0.30822,-0.0127 -0.37092,-0.0754 -0.15985,-0.15985 z m 4.48138,0.006 c 0.1819,-0.0734 0.47956,-0.0734 0.66146,0 0.1819,0.0734 0.0331,0.13345 -0.33073,0.13345 -0.36381,0 -0.51263,-0.06 -0.33073,-0.13345 z m 5.57278,-0.006 c 0.191,-0.0764 0.4192,-0.067 0.50712,0.0209 0.0879,0.0879 -0.0684,0.15045 -0.34726,0.13896 -0.30823,-0.0127 -0.37092,-0.0754 -0.15986,-0.15985 z m 14.67288,-0.003 c 0.25743,-0.0671 0.61462,-0.0627 0.79375,0.01 0.17913,0.0725 -0.0315,0.12736 -0.46806,0.12197 -0.43656,-0.005 -0.58312,-0.0647 -0.32569,-0.13178 z m 113.84718,-0.0565 c -0.0816,-0.13195 0.09,-0.1776 0.38126,-0.10143 0.6178,0.16155 0.6959,0.34134 0.14828,0.34134 -0.2097,0 -0.44799,-0.10796 -0.52954,-0.23991 z m 12.09002,-0.68613 c 0.003,-0.58209 0.0571,-0.78906 0.1204,-0.45994 0.0633,0.32912 0.0609,0.80537 -0.005,1.05833 -0.0662,0.25297 -0.11801,-0.0163 -0.11507,-0.59839 z m -124.57208,0.13229 c 0,-0.3427 0.0895,-0.43215 0.26081,-0.26081 0.17135,0.17135 0.17135,0.35026 0,0.52161 -0.17135,0.17135 -0.26081,0.0819 -0.26081,-0.2608 z m 1.2513,0 c 0,-0.3638 0.0601,-0.51263 0.13346,-0.33073 0.0734,0.1819 0.0734,0.47956 0,0.66146 -0.0734,0.1819 -0.13346,0.0331 -0.13346,-0.33073 z m 126.51104,-0.92604 c 10e-4,-0.87313 0.0509,-1.19842 0.10977,-0.72287 0.0589,0.47555 0.0577,1.18992 -0.003,1.5875 -0.0604,0.39758 -0.10855,0.008 -0.10707,-0.86463 z m -138.30976,0.73901 c -0.14358,-0.37708 -0.11319,-0.40747 0.14811,-0.14811 0.18083,0.17947 0.26212,0.39297 0.18066,0.47443 -0.0815,0.0815 -0.22941,-0.0654 -0.32877,-0.32632 z m 1.98825,-0.2319 c 0.0127,-0.30822 0.0754,-0.37091 0.15986,-0.15985 0.0764,0.191 0.067,0.4192 -0.0209,0.50712 -0.0879,0.0879 -0.15046,-0.0684 -0.13897,-0.34727 z m 1.27554,-0.18996 c 0.11767,-0.11703 0.91591,-0.17507 1.77387,-0.12897 l 1.55991,0.0838 -1.77386,0.12896 c -0.97563,0.0709 -1.67759,0.0332 -1.55992,-0.0838 z m -26.65465,-0.44867 c 0,-0.3638 0.0601,-0.51263 0.13346,-0.33072 0.0734,0.1819 0.0734,0.47955 0,0.66145 -0.0734,0.1819 -0.13346,0.0331 -0.13346,-0.33073 z m 4.77231,-0.13229 c 0.005,-0.43656 0.0647,-0.58312 0.13177,-0.32569 0.0671,0.25743 0.0627,0.61462 -0.01,0.79375 -0.0725,0.17913 -0.12736,-0.0315 -0.12197,-0.46806 z m 10.05416,-0.26458 c 0.005,-0.43656 0.0647,-0.58312 0.13178,-0.32569 0.0671,0.25743 0.0627,0.61461 -0.01,0.79375 -0.0725,0.17913 -0.12736,-0.0315 -0.12197,-0.46806 z m -22.32618,0.21613 c 0.19099,-0.0764 0.41919,-0.067 0.50711,0.0209 0.0879,0.0879 -0.0684,0.15045 -0.34726,0.13897 -0.30823,-0.0127 -0.37092,-0.0754 -0.15985,-0.15986 z m 37.64132,-0.76735 c 0.0127,-0.30822 0.0754,-0.37091 0.15986,-0.15985 0.0764,0.191 0.067,0.4192 -0.0209,0.50712 -0.0879,0.0879 -0.15045,-0.0684 -0.13897,-0.34727 z m 0.79375,-0.26458 c 0.0127,-0.30822 0.0754,-0.37092 0.15986,-0.15985 0.0764,0.19099 0.067,0.4192 -0.0209,0.50712 -0.0879,0.0879 -0.15045,-0.0684 -0.13897,-0.34727 z m 131.7625,0 c 0.0127,-0.30822 0.0754,-0.37092 0.15985,-0.15985 0.0764,0.19099 0.067,0.4192 -0.0209,0.50712 -0.0879,0.0879 -0.15045,-0.0684 -0.13896,-0.34727 z m -173.50286,-1.43316 c 0,-0.94588 0.048,-1.33284 0.10671,-0.85989 0.0587,0.47294 0.0587,1.24684 0,1.71979 -0.0587,0.47294 -0.10671,0.086 -0.10671,-0.8599 z m 16.18719,0.79375 c 0.26338,-0.29104 0.53842,-0.52917 0.61118,-0.52917 0.0728,0 -0.0832,0.23813 -0.3466,0.52917 -0.26339,0.29104 -0.53842,0.52917 -0.61118,0.52917 -0.0728,0 0.0832,-0.23813 0.3466,-0.52917 z m 13.24441,0.28926 c -0.0815,-0.13195 0.09,-0.1776 0.38126,-0.10143 0.6178,0.16155 0.69589,0.34134 0.14827,0.34134 -0.20969,0 -0.44798,-0.10796 -0.52953,-0.23991 z m 16.04776,-0.13028 c 0.18763,-0.20361 0.38284,-0.33059 0.4338,-0.28219 0.15693,0.14908 -0.24081,0.65238 -0.51556,0.65238 -0.14267,0 -0.10588,-0.16659 0.0818,-0.37019 z m -33.45936,-0.0696 c 0.1819,-0.0734 0.47956,-0.0734 0.66146,0 0.1819,0.0734 0.0331,0.13345 -0.33073,0.13345 -0.3638,0 -0.51263,-0.0601 -0.33073,-0.13345 z m 2.14906,-0.2878 c -0.32911,-0.41964 -0.31975,-0.429 0.0999,-0.0999 0.25466,0.19972 0.46302,0.40808 0.46302,0.46302 0,0.21776 -0.21727,0.0776 -0.56291,-0.36313 z m 5.7393,0.0114 c -0.14358,-0.37708 -0.11319,-0.40747 0.14812,-0.14811 0.18082,0.17948 0.26211,0.39297 0.18065,0.47443 -0.0815,0.0815 -0.22941,-0.0654 -0.32877,-0.32632 z m 16.51945,0.35172 c 0,-0.0549 0.20836,-0.2633 0.46302,-0.46302 0.41964,-0.32911 0.429,-0.31975 0.0999,0.0999 -0.34564,0.44073 -0.56292,0.58089 -0.56292,0.36313 z m 128.60838,-0.31904 c 0.0127,-0.30822 0.0754,-0.37092 0.15985,-0.15985 0.0764,0.19099 0.067,0.4192 -0.0209,0.50712 -0.0879,0.0879 -0.15045,-0.0684 -0.13896,-0.34727 z m -10.07505,-0.0946 c 0,-0.13693 0.11769,-0.32171 0.26155,-0.41061 0.14998,-0.0927 0.19434,0.0135 0.10398,0.24896 -0.17589,0.45837 -0.36553,0.54224 -0.36553,0.16165 z m -148.49251,-0.32479 c 0.15375,-0.15375 0.43572,-0.22749 0.6266,-0.16386 0.19816,0.0661 0.0782,0.18598 -0.27954,0.27954 -0.4401,0.11509 -0.5434,0.0807 -0.34706,-0.11568 z m -4.63005,-1.19712 c 0.25743,-0.0671 0.61461,-0.0627 0.79375,0.01 0.17913,0.0725 -0.0315,0.12736 -0.46806,0.12197 -0.43656,-0.005 -0.58312,-0.0647 -0.32569,-0.13177 z m 139.82724,-1.05021 c 0.18191,-0.0734 0.47956,-0.0734 0.66146,0 0.1819,0.0734 0.0331,0.13345 -0.33073,0.13345 -0.3638,0 -0.51263,-0.06 -0.33073,-0.13345 z m -120.64999,-7.40833 c 0.1819,-0.0734 0.47956,-0.0734 0.66146,0 0.1819,0.0734 0.0331,0.13345 -0.33073,0.13345 -0.3638,0 -0.51263,-0.06 -0.33073,-0.13345 z m 3.175,0 c 0.1819,-0.0734 0.47956,-0.0734 0.66146,0 0.1819,0.0734 0.0331,0.13345 -0.33073,0.13345 -0.3638,0 -0.51263,-0.06 -0.33073,-0.13345 z m 135.4832,-0.006 c 0.19099,-0.0764 0.4192,-0.067 0.50711,0.0209 0.0879,0.0879 -0.0683,0.15046 -0.34726,0.13897 -0.30823,-0.0127 -0.37092,-0.0754 -0.15985,-0.15986 z m -138.8731,-0.89365 c -2.75689,-0.40576 -3.68359,-0.90196 -25.38176,-13.59082 -9.55598,-5.58824 -9.79136,-5.80802 -9.79136,-9.14248 v -1.60017 l 0.72761,0.78351 c 0.40018,0.43094 3.76369,2.53939 7.47448,4.68544 26.48313,15.31602 24.11935,14.11864 28.27193,14.32128 4.86637,0.23747 5.03592,0.16888 17.50098,-7.08024 14.07907,-8.18775 18.58401,-10.90802 19.63131,-11.85419 l 1.00619,-0.90903 v 1.46877 c 0,2.86379 -1.02487,4.11344 -5.55625,6.77489 -27.93993,16.41016 -26.61036,15.68975 -29.81001,16.15234 -2.02026,0.29207 -2.02552,0.29206 -4.07312,-0.009 z m 135.48312,-0.0575 c -2.63393,-0.32267 -4.02556,-1.06903 -25.53229,-13.69346 -9.45014,-5.54723 -9.63887,-5.72469 -9.65148,-9.0753 l -0.006,-1.54384 1.15986,1.01468 c 0.63793,0.55807 2.63222,1.8556 4.43177,2.88341 1.79955,1.0278 8.15347,4.7117 14.11983,8.18645 13.61008,7.92637 13.01124,7.66536 17.59479,7.66903 4.52501,0.004 4.40025,0.051 13.09687,-4.97318 16.6106,-9.5962 21.83159,-12.7174 23.0849,-13.80053 l 1.12448,-0.9718 v 1.48216 c 0,3.71343 0.97903,3.01193 -26.59063,19.05269 -6.37303,3.70801 -8.42211,4.30996 -12.83229,3.76969 z m -0.31419,-5.39837 c 0.191,-0.0764 0.4192,-0.067 0.50712,0.0209 0.0879,0.0879 -0.0683,0.15046 -0.34727,0.13897 -0.30822,-0.0127 -0.37092,-0.0754 -0.15985,-0.15986 z m -169.69723,-12.84998 -0.77711,-0.8599 0.8599,0.77711 c 0.47294,0.4274 0.85989,0.81436 0.85989,0.85989 0,0.20441 -0.21831,0.0244 -0.94268,-0.7771 z m -1.60418,-5.6224 c 6e-4,-1.60073 0.0442,-2.22146 0.0968,-1.3794 0.0527,0.84206 0.0522,2.15175 -0.001,2.91042 -0.0533,0.75867 -0.0964,0.0697 -0.0958,-1.53102 z m 37.68683,2.3328 c 0.191,-0.0764 0.4192,-0.067 0.50712,0.0209 0.0879,0.0879 -0.0683,0.15045 -0.34726,0.13896 -0.30823,-0.0127 -0.37092,-0.0754 -0.15986,-0.15985 z m 38.75806,-1.67134 c 0,-0.80036 0.0496,-1.12779 0.11023,-0.7276 0.0606,0.40018 0.0606,1.05502 0,1.4552 -0.0606,0.40019 -0.11023,0.0728 -0.11023,-0.7276 z m 135.46305,0.13229 c 0.002,-0.7276 0.0534,-0.99386 0.11419,-0.59167 0.0608,0.40218 0.0592,0.99749 -0.004,1.32291 -0.0628,0.32542 -0.11256,-0.004 -0.11058,-0.73124 z m -178.68944,-1.65364 -0.64143,-0.72761 0.7276,0.64143 c 0.68006,0.59952 0.84894,0.81378 0.64144,0.81378 -0.0474,0 -0.37482,-0.32742 -0.72761,-0.7276 z m 146.02467,-0.33073 c -0.0555,-0.58209 -0.008,-1.05834 0.1045,-1.05834 0.11299,0 0.20543,0.47625 0.20543,1.05834 0,0.58208 -0.047,1.05833 -0.1045,1.05833 -0.0575,0 -0.14992,-0.47625 -0.20543,-1.05833 z m -102.82598,-1.98438 c 0.005,-0.43656 0.0647,-0.58312 0.13177,-0.32569 0.0671,0.25743 0.0627,0.61462 -0.01,0.79375 -0.0725,0.17913 -0.12736,-0.0315 -0.12197,-0.46806 z m -75.68063,-0.13229 c 0,-0.3638 0.0601,-0.51263 0.13345,-0.33073 0.0734,0.1819 0.0734,0.47956 0,0.66146 -0.0734,0.1819 -0.13345,0.0331 -0.13345,-0.33073 z m 134.65202,0.11024 c 0.0127,-0.30822 0.0754,-0.37092 0.15985,-0.15985 0.0764,0.191 0.067,0.4192 -0.0209,0.50712 -0.0879,0.0879 -0.15045,-0.0684 -0.13896,-0.34727 z m 76.46458,0 c 0.0127,-0.30822 0.0754,-0.37092 0.15985,-0.15985 0.0764,0.191 0.067,0.4192 -0.0209,0.50712 -0.0879,0.0879 -0.15045,-0.0684 -0.13896,-0.34727 z m -160.63377,-1.51585 c 0.55808,-0.91861 1.84863,-3.7551 2.86789,-6.30332 2.26686,-5.66728 3.74933,-8.65479 5.83081,-11.75043 2.32609,-3.45944 6.09771,-8.05262 6.48899,-7.90247 0.37133,0.1425 3.20377,4.72752 3.22529,5.22097 0.008,0.172 -0.44218,0.81956 -0.99929,1.43901 -1.46756,1.63178 -3.631,5.05747 -5.30406,8.39873 -2.05894,4.11187 -3.50039,6.52247 -3.75948,6.28715 -0.12215,-0.11096 -0.14772,-0.0711 -0.0568,0.0885 0.17877,0.31389 -0.79257,1.29878 -2.06484,2.09367 -1.01925,0.6368 -7.07619,4.09838 -7.1712,4.09838 -0.0396,0 0.38462,-0.75158 0.94269,-1.67019 z m 103.56484,-2.03397 c 0,-1.81901 0.0423,-2.56315 0.0939,-1.65365 0.0517,0.90951 0.0517,2.39779 0,3.30729 -0.0517,0.90951 -0.0939,0.16537 -0.0939,-1.65364 z m 37.83626,-0.13229 c 4.6e-4,-1.89178 0.0426,-2.63096 0.0936,-1.64265 0.051,0.98832 0.0507,2.53613 -8.4e-4,3.43959 -0.0515,0.90345 -0.0933,0.0948 -0.0928,-1.79694 z m -154.63371,0.7276 -0.91179,-0.99219 0.99218,0.9118 c 0.54571,0.50149 0.99219,0.94797 0.99219,0.99219 0,0.20204 -0.22389,0.0117 -1.07258,-0.9118 z m 132.34593,-2.61391 -2.47351,-1.4712 0.0923,-2.21074 c 0.1232,-2.95197 0.18903,-2.98264 2.90985,-1.35607 2.5676,1.53497 2.8549,2.14551 2.44911,5.20452 -0.21286,1.60463 0.0222,1.61777 -2.97771,-0.16651 z m 3.9288,-1.09026 6e-5,-2.57968 2.46904,-1.38907 c 1.35797,-0.76398 2.55288,-1.38906 2.65535,-1.38906 0.10247,0 0.15223,1.14722 0.11058,2.54937 l -0.0757,2.54937 -2.37902,1.41938 c -2.99052,1.78421 -2.78037,1.87192 -2.78028,-1.16031 z m -9.98809,-2.42373 -2.4474,-1.47093 v -2.60979 -2.60979 l 0.99219,0.586 c 0.5457,0.32231 1.73633,1.01427 2.64583,1.5377 l 1.65365,0.95169 v 2.44157 c 0,1.34287 -0.0893,2.48723 -0.19844,2.54302 -0.10914,0.0558 -1.29977,-0.56046 -2.64583,-1.36947 z m 16.07343,-0.99813 v -2.60607 l 1.38906,-0.81817 c 0.76399,-0.45 1.95461,-1.14397 2.64584,-1.54217 l 1.25677,-0.72399 v 2.62633 2.62633 l -2.42534,1.43371 c -1.33394,0.78854 -2.52457,1.47339 -2.64584,1.5219 -0.12127,0.0485 -0.22049,-1.08454 -0.22049,-2.51787 z m -180.42493,-0.50279 c 0.0127,-0.30822 0.0754,-0.37092 0.15985,-0.15985 0.0764,0.19099 0.067,0.4192 -0.0209,0.50712 -0.0879,0.0879 -0.15045,-0.0684 -0.13896,-0.34727 z m 45.6216,-0.63638 c -0.0927,-0.14998 0.0135,-0.19434 0.24897,-0.10398 0.45837,0.17589 0.54224,0.36553 0.16165,0.36553 -0.13693,0 -0.32171,-0.11769 -0.41062,-0.26155 z m 112.97521,-1.22431 c -2.95538,-1.68248 -2.77813,-1.41228 -2.77813,-4.23507 0,-1.36463 0.0505,-2.48115 0.1123,-2.48115 0.0618,0 1.22263,0.64147 2.57969,1.42549 l 2.46739,1.4255 0.0757,2.54325 c 0.0417,1.39879 -0.0179,2.5396 -0.1323,2.53513 -0.11441,-0.004 -1.16051,-0.55039 -2.32468,-1.21315 z m 28.00478,-1.32845 0.0411,-2.54973 2.4566,-1.41902 c 1.35113,-0.78046 2.51199,-1.41902 2.57969,-1.41902 0.0677,0 0.12305,1.16086 0.12302,2.57969 l -7e-5,2.57969 -2.46904,1.38906 c -1.35797,0.76398 -2.53727,1.38906 -2.62067,1.38906 -0.0834,0 -0.13316,-1.14738 -0.11058,-2.54973 z m -8.36388,1.19398 c 0.17948,-0.18082 0.39297,-0.26211 0.47443,-0.18065 0.0815,0.0815 -0.0654,0.22941 -0.32632,0.32876 -0.37708,0.14359 -0.40747,0.1132 -0.14811,-0.14811 z m -23.37947,-4.72967 c 0,-1.52796 0.0437,-2.15304 0.0972,-1.38906 0.0534,0.76399 0.0534,2.01414 0,2.77813 -0.0534,0.76398 -0.0972,0.1389 -0.0972,-1.38907 z m 17.4528,0.93768 c 0,-0.21188 0.10116,-0.32271 0.22481,-0.2463 0.12364,0.0764 0.1563,0.24977 0.0726,0.38524 -0.21395,0.34618 -0.29739,0.3072 -0.29739,-0.13894 z m 2.70123,0.13894 c -0.0837,-0.13547 -0.0511,-0.30882 0.0726,-0.38524 0.12364,-0.0764 0.2248,0.0344 0.2248,0.2463 0,0.44614 -0.0834,0.48512 -0.29738,0.13894 z m -13.68695,-0.99277 c 0.191,-0.0764 0.4192,-0.067 0.50712,0.0209 0.0879,0.0879 -0.0683,0.15045 -0.34726,0.13896 -0.30823,-0.0127 -0.37092,-0.0754 -0.15986,-0.15985 z m -141.27163,-0.81145 c -0.32911,-0.41964 -0.31975,-0.429 0.0999,-0.0999 0.44073,0.34564 0.58089,0.56291 0.36313,0.56291 -0.0549,0 -0.2633,-0.20836 -0.46302,-0.46302 z m 144.84328,-1.04385 c 0.0853,-0.13797 -0.006,-0.5617 -0.20332,-0.94161 -0.31596,-0.60901 -0.30922,-0.67189 0.057,-0.53138 0.29654,0.1138 0.35337,0.0592 0.19873,-0.19106 -0.14518,-0.2349 -0.11445,-0.28731 0.0932,-0.15897 0.17037,0.1053 0.22877,0.32252 0.12976,0.48272 -0.11161,0.18059 -0.0302,0.23379 0.21414,0.14002 0.58144,-0.22312 0.43244,0.84846 -0.16441,1.18248 -0.27159,0.15198 -0.41276,0.15972 -0.32506,0.0178 z m -95.59703,-1.23886 c 0,-0.0549 0.20836,-0.2633 0.46302,-0.46302 0.41964,-0.32911 0.429,-0.31975 0.0999,0.0999 -0.34564,0.44073 -0.56291,0.58088 -0.56291,0.36312 z m 112.44791,-0.0138 c 0,-0.0728 0.23812,-0.25973 0.52917,-0.41549 0.29104,-0.15576 0.52916,-0.22367 0.52916,-0.15091 0,0.0728 -0.23812,0.25973 -0.52916,0.41549 -0.29105,0.15577 -0.52917,0.22367 -0.52917,0.15091 z m -23.54792,-0.79375 c 0,-0.0728 0.23813,-0.25973 0.52917,-0.41549 0.29104,-0.15576 0.52917,-0.22367 0.52917,-0.15091 0,0.0728 -0.23813,0.25973 -0.52917,0.41549 -0.29104,0.15577 -0.52917,0.22367 -0.52917,0.15091 z m -83.40989,-0.32613 c 0.1819,-0.0734 0.47956,-0.0734 0.66146,0 0.1819,0.0734 0.0331,0.13345 -0.33073,0.13345 -0.3638,0 -0.51263,-0.0601 -0.33073,-0.13345 z m -3.96875,-0.26459 c 0.1819,-0.0734 0.47956,-0.0734 0.66146,0 0.1819,0.0734 0.0331,0.13345 -0.33073,0.13345 -0.3638,0 -0.51263,-0.06 -0.33073,-0.13345 z m 0.67922,-0.80859 c -0.71923,-0.09 -1.01271,-0.38307 -2.01101,-2.00818 -1.67764,-2.73096 -1.653,-2.68226 -1.22263,-2.41676 0.5193,0.32036 4.44761,3.25597 5.35285,4.00016 l 0.7479,0.61485 -1.01249,-0.0423 c -0.55686,-0.0233 -1.39144,-0.0898 -1.85462,-0.14773 z m -30.5606,-0.51984 c 0.191,-0.0764 0.4192,-0.067 0.50712,0.0209 0.0879,0.0879 -0.0684,0.15045 -0.34726,0.13897 -0.30823,-0.0127 -0.37092,-0.0754 -0.15986,-0.15986 z m -30.04674,-0.27333 c 0.40018,-0.0606 1.05503,-0.0606 1.45521,0 0.40018,0.0606 0.0728,0.11023 -0.7276,0.11023 -0.80037,0 -1.12779,-0.0496 -0.72761,-0.11023 z m 25.56469,-2.65476 c -0.32911,-0.41964 -0.31975,-0.429 0.0999,-0.0999 0.44073,0.34564 0.58089,0.56291 0.36312,0.56291 -0.0549,0 -0.2633,-0.20836 -0.46302,-0.46302 z m 40.32609,-0.7276 c 0.002,-0.72761 0.0534,-0.99386 0.11418,-0.59168 0.0608,0.40219 0.0592,0.9975 -0.004,1.32292 -0.0628,0.32542 -0.11256,-0.004 -0.11057,-0.73124 z m -42.17818,-0.0662 c -0.3291,-0.41964 -0.31974,-0.429 0.0999,-0.0999 0.25467,0.19972 0.46303,0.40807 0.46303,0.46302 0,0.21776 -0.21728,0.0776 -0.56292,-0.36313 z m 158.09005,-2.97651 c 0,-1.67349 0.043,-2.3581 0.0955,-1.52136 0.0525,0.83675 0.0525,2.20597 0,3.04271 -0.0525,0.83675 -0.0955,0.15214 -0.0955,-1.52135 z m -158.8838,1.12448 c -0.3291,-0.41965 -0.31974,-0.429 0.0999,-0.0999 0.25467,0.19972 0.46303,0.40808 0.46303,0.46302 0,0.21776 -0.21728,0.0776 -0.56292,-0.36312 z m 21.66891,-4.35069 c -0.54269,-1.62709 -0.94503,-3.00003 -0.8941,-3.05096 0.23388,-0.23388 4.40632,2.68936 4.28604,3.00281 -0.16676,0.43458 -2.09604,2.97511 -2.27293,2.99307 -0.0728,0.007 -0.57631,-1.31782 -1.11901,-2.94492 z m 21.5676,1.50642 c 0.002,-0.72761 0.0534,-0.99386 0.11418,-0.59168 0.0608,0.40219 0.0592,0.9975 -0.004,1.32292 -0.0628,0.32542 -0.11256,-0.004 -0.11057,-0.73124 z m 0.26097,-4.89479 c 0,-0.65485 0.0516,-0.922737 0.11466,-0.59532 0.0631,0.32742 0.0631,0.86321 0,1.19063 -0.0631,0.32742 -0.11466,0.0595 -0.11466,-0.59531 z m 0.25391,-4.497917 c 0,-0.50932 0.0544,-0.71768 0.121,-0.46302 0.0665,0.25466 0.0665,0.67138 0,0.92604 -0.0666,0.25466 -0.121,0.0463 -0.121,-0.46302 z m 0.26992,-4.36563 c 0.003,-0.582079 0.0571,-0.78905 0.1204,-0.459932 0.0633,0.329122 0.0609,0.805372 -0.005,1.058332 -0.0662,0.25297 -0.118,-0.0163 -0.11506,-0.5984 z M -197.8216,48.535534 c 0.191,-0.07643 0.4192,-0.06703 0.50712,0.02089 0.0879,0.08792 -0.0683,0.150453 -0.34726,0.138964 -0.30823,-0.0127 -0.37092,-0.07539 -0.15986,-0.159852 z m 112.18333,-1.058333 c 0.191,-0.07643 0.4192,-0.06703 0.50712,0.02089 0.0879,0.08792 -0.0683,0.150452 -0.34727,0.138964 -0.30822,-0.0127 -0.37092,-0.07539 -0.15985,-0.159852 z m 13.47721,0.0055 c 0.1819,-0.0734 0.47956,-0.0734 0.66146,0 0.1819,0.0734 0.0331,0.133452 -0.33073,0.133452 -0.3638,0 -0.51263,-0.06005 -0.33073,-0.133452 z m -158.07539,-1.676843 c 0,-0.800365 0.0496,-1.127787 0.11022,-0.727604 0.0606,0.400182 0.0606,1.055026 0,1.455208 -0.0606,0.400182 -0.11022,0.07276 -0.11022,-0.727604 z m 17.42499,0.529166 c 0,-0.363802 0.0601,-0.51263 0.13345,-0.330729 0.0734,0.181901 0.0734,0.479558 0,0.661459 -0.0734,0.181901 -0.13345,0.03307 -0.13345,-0.33073 z m 153.30127,-0.07756 c 0.0994,-0.260938 0.2473,-0.407782 0.32876,-0.32632 0.0815,0.08146 1.7e-4,0.294956 -0.18065,0.474432 -0.26131,0.259362 -0.2917,0.228971 -0.14811,-0.148112 z m 1.1945,-0.341367 c 0.0127,-0.308225 0.0754,-0.370919 0.15985,-0.159853 0.0764,0.190997 0.067,0.4192 -0.0209,0.507119 -0.0879,0.08792 -0.15045,-0.06835 -0.13896,-0.347266 z m -154.44363,-2.623785 c -8.1e-4,-1.309687 0.0439,-1.878826 0.0994,-1.264754 0.0555,0.614073 0.0562,1.685635 0.001,2.38125 -0.0547,0.695615 -0.10008,0.193192 -0.10089,-1.116496 z m -26.20838,-0.926041 c 0,-0.800365 0.0496,-1.127787 0.11022,-0.727604 0.0606,0.400182 0.0606,1.055026 0,1.455208 -0.0606,0.400182 -0.11022,0.07276 -0.11022,-0.727604 z m 2.55549,0.198437 c 0.64876,-0.691224 1.21431,-1.256771 1.25677,-1.256771 0.19867,0 -0.0114,0.23755 -1.17957,1.333974 l -1.25677,1.179568 z m 175.89282,0.420084 c 0.1819,-0.0734 0.47956,-0.0734 0.66146,0 0.1819,0.0734 0.0331,0.133452 -0.33073,0.133452 -0.3638,0 -0.51263,-0.06005 -0.33073,-0.133452 z M -73.2238,41.010527 c 0.17948,-0.180822 0.39297,-0.262116 0.47443,-0.180654 0.0815,0.08146 -0.0654,0.229407 -0.32632,0.328766 -0.37708,0.143585 -0.40747,0.113194 -0.14811,-0.148112 z m -8.39611,-0.205706 c 0,-0.274754 0.50329,-0.672498 0.65238,-0.515561 0.0484,0.05095 -0.0786,0.246162 -0.28219,0.433801 -0.20361,0.187638 -0.37019,0.22443 -0.37019,0.08176 z m -15.47812,-0.29063 c -0.43138,-0.185369 -0.44649,-0.230827 -0.0818,-0.245987 0.24608,-0.01023 0.521,0.100467 0.61093,0.245987 0.18803,0.304239 0.17884,0.304239 -0.52916,0 z m 15.95768,-8.382823 c 0.19099,-0.07643 0.4192,-0.06703 0.50711,0.02089 0.0879,0.08792 -0.0684,0.150453 -0.34726,0.138964 -0.30823,-0.0127 -0.37092,-0.07539 -0.15985,-0.159852 z m 3.15846,0.0055 c 0.1819,-0.0734 0.47956,-0.0734 0.66146,0 0.1819,0.0734 0.0331,0.133452 -0.33073,0.133452 -0.3638,0 -0.51263,-0.06005 -0.33073,-0.133452 z m -3.38651,-0.892407 c -2.642,-0.401248 -4.25777,-1.232676 -18.27721,-9.40494 -17.2924,-10.08015 -16.88572,-9.760429 -16.89495,-13.2825972 l -0.004,-1.662465 0.87346,0.873463 c 1.16428,1.164279 28.59584,17.1909182 31.14248,18.1947102 3.5193,1.387179 8.1528,1.241517 11.50802,-0.361776 4.51873,-2.159278 29.56729,-17.0520102 30.49191,-18.1291002 l 0.594,-0.69195 0.001,1.529852 c 0.003,3.8458162 0.76394,3.2735912 -21.9591,16.5198162 -11.35451,6.619024 -12.75267,7.132266 -17.47557,6.414987 z m -133.7963,-5.207629 c 0.40218,-0.06081 0.99749,-0.05919 1.32291,0.0036 0.32543,0.0628 -0.004,0.11256 -0.73124,0.110574 -0.7276,-0.002 -0.99386,-0.05337 -0.59167,-0.114186 z m 135.59531,0.0031 c 0.32742,-0.06306 0.8632,-0.06306 1.19063,0 0.32742,0.06306 0.0595,0.114662 -0.59532,0.114662 -0.65484,0 -0.92273,-0.0516 -0.59531,-0.114662 z m 36.57864,-12.910149 c 0.34178,-0.363802 0.68094,-0.661458 0.7537,-0.661458 0.0728,0 -0.14734,0.297656 -0.48911,0.661458 -0.34178,0.363802 -0.68094,0.661458 -0.7537,0.661458 -0.0728,0 0.14734,-0.297656 0.48911,-0.661458 z M -214.33424,6.6475268 c 0,-2.255573 0.0406,-3.178308 0.0902,-2.050521 0.0496,1.127786 0.0496,2.973255 0,4.101041 -0.0496,1.127787 -0.0902,0.205052 -0.0902,-2.05052 z m 96.81028,1.852083 c 0,-0.800365 0.0496,-1.127787 0.11023,-0.727604 0.0606,0.400182 0.0606,1.055026 0,1.455208 -0.0606,0.400182 -0.11023,0.07276 -0.11023,-0.727604 z m 76.46998,-0.529167 c 0,-0.945885 0.048,-1.332838 0.10672,-0.859896 0.0587,0.472943 0.0587,1.246849 0,1.719792 -0.0587,0.472943 -0.10672,0.08599 -0.10672,-0.859896 z m -50.77229,-4.7625 c 0,-3.1286973 0.0383,-4.4086191 0.0851,-2.8442703 0.0468,1.5643493 0.0468,4.1241923 0,5.6885413 -0.0468,1.564349 -0.0851,0.284427 -0.0851,-2.844271 z m -8.19919,-4.3656243 c 1.5e-4,-3.7835415 0.0373,-5.2945605 0.0826,-3.3578199 0.0453,1.9367405 0.0452,5.0323653 -2.7e-4,6.8791662 -0.0454,1.846801 -0.0824,0.262195 -0.0823,-3.5213463 z m 58.95886,5.4239583 c 0,-0.654844 0.0516,-0.922735 0.11466,-0.595313 0.0631,0.327422 0.0631,0.863203 0,1.190625 -0.0631,0.327422 -0.11466,0.05953 -0.11466,-0.595312 z m -211.15797,-0.132292 c 0.005,-0.436562 0.0647,-0.583125 0.13177,-0.325694 0.0671,0.257431 0.0627,0.614619 -0.01,0.79375 -0.0725,0.179132 -0.12736,-0.03149 -0.12197,-0.468056 z m 134.67291,0 c 0.005,-0.436562 0.0647,-0.583125 0.13177,-0.325694 0.0671,0.257431 0.0627,0.614619 -0.01,0.79375 -0.0725,0.179132 -0.12736,-0.03149 -0.12197,-0.468056 z m -59.03277,-0.02205 c 0.0127,-0.308224 0.0754,-0.370919 0.15985,-0.159852 0.0764,0.190996 0.067,0.419199 -0.0209,0.507118 -0.0879,0.08792 -0.15045,-0.06835 -0.13896,-0.347266 z m -37.76386,-7.5185746 c 0,-1.236927 0.0456,-1.7429426 0.10128,-1.1244791 0.0557,0.6184635 0.0557,1.6304947 0,2.2489583 -0.0557,0.6184635 -0.10128,0.1124479 -0.10128,-1.1244792 z m 122.51064,-3.5718748 c 5.2e-4,-1.7462499 0.0433,-2.4261934 0.0952,-1.5109856 0.0518,0.9152078 0.0514,2.3439577 -9.6e-4,3.1749998 -0.0523,0.8310421 -0.0947,0.082236 -0.0942,-1.6640142 z M -190.7714,-18.752472 c 0,-6.330156 0.0345,-8.919765 0.0767,-5.754687 0.0422,3.165078 0.0422,8.344296 0,11.509374 -0.0422,3.1650779 -0.0767,0.575469 -0.0767,-5.754687 z m 90.74141,5.556249 c 0,-2.837656 0.0389,-3.998515 0.0865,-2.579687 0.0476,1.418828 0.0476,3.740547 0,5.159375 -0.0476,1.4188278 -0.0865,0.257969 -0.0865,-2.579688 z m -114.29836,-1.058333 c 0,-3.128698 0.0383,-4.408619 0.085,-2.84427 0.0468,1.564348 0.0468,4.124192 0,5.688541 -0.0468,1.5643487 -0.085,0.284427 -0.085,-2.844271 z m 131.54507,3.219097 c -0.075,-0.121267 0.0319,-0.220486 0.23733,-0.220486 0.20548,0 0.31227,0.09922 0.23733,0.220486 -0.075,0.121268 -0.18175,0.220486 -0.23733,0.220486 -0.0556,0 -0.16238,-0.09922 -0.23733,-0.220486 z m -0.93241,-4.43177 c 0.0127,-0.308225 0.0754,-0.37092 0.15985,-0.159853 0.0764,0.190996 0.067,0.419199 -0.0209,0.507118 -0.0879,0.08792 -0.15046,-0.06835 -0.13897,-0.347265 z m -1.1945,-2.413937 c -0.14359,-0.377083 -0.1132,-0.407474 0.14811,-0.148112 0.18082,0.179476 0.26212,0.39297 0.18065,0.474432 -0.0815,0.08146 -0.2294,-0.06538 -0.32876,-0.32632 z m 16.30644,-2.061931 c 0.005,-0.436562 0.0647,-0.583125 0.13178,-0.325694 0.0671,0.257431 0.0627,0.614619 -0.01,0.79375 -0.0725,0.179132 -0.12736,-0.03149 -0.12197,-0.468056 z m -7.68272,-2.778125 c 0,-0.363802 0.0601,-0.51263 0.13345,-0.330729 0.0734,0.181901 0.0734,0.479557 0,0.661458 -0.0734,0.181901 -0.13345,0.03307 -0.13345,-0.330729 z m 7.94731,-0.926041 c 0.005,-0.436563 0.0647,-0.583125 0.13177,-0.325694 0.0671,0.257431 0.0627,0.614618 -0.01,0.79375 -0.0725,0.179131 -0.12737,-0.03149 -0.12197,-0.468056 z m -148.64026,-0.198438 -0.50402,-0.595312 0.59531,0.504027 c 0.55944,0.473662 0.71576,0.686597 0.50403,0.686597 -0.0502,0 -0.3181,-0.26789 -0.59532,-0.595312 z m 3.8616,0.495418 c 0,-0.05494 0.20836,-0.263302 0.46302,-0.463021 0.41964,-0.329108 0.429,-0.319749 0.0999,0.0999 -0.34564,0.440729 -0.56291,0.580887 -0.56291,0.363126 z m 137.91463,-1.619897 c 0.003,-0.582083 0.0571,-0.789055 0.12041,-0.459936 0.0633,0.329118 0.0609,0.805368 -0.005,1.058333 -0.0662,0.252965 -0.118,-0.01631 -0.11507,-0.598397 z m -0.74187,-9.392708 c 0,-4.874948 0.0357,-6.869244 0.0794,-4.431771 0.0437,2.437474 0.0437,6.426068 0,8.863542 -0.0437,2.437474 -0.0794,0.443177 -0.0794,-4.431771 z m -144.35026,7.209896 c -0.32911,-0.419644 -0.31975,-0.429003 0.0999,-0.09989 0.25466,0.199719 0.46302,0.408078 0.46302,0.463021 0,0.217761 -0.21727,0.0776 -0.56291,-0.363126 z m 152.23588,-0.992188 c 0.003,-0.582083 0.0571,-0.789054 0.12041,-0.459936 0.0633,0.329119 0.0609,0.805369 -0.005,1.058333 -0.0662,0.252965 -0.118,-0.01631 -0.11507,-0.598397 z m -122.74268,-4.233333 c 9.6e-4,-1.164167 0.0475,-1.607504 0.10337,-0.985194 0.0559,0.62231 0.0551,1.57481 -0.002,2.116667 -0.0569,0.541856 -0.10258,0.03269 -0.10162,-1.131473 z m -29.74406,0.198437 -0.64143,-0.727604 0.7276,0.641433 c 0.68006,0.599516 0.84894,0.813776 0.64144,0.813776 -0.0474,0 -0.37482,-0.327422 -0.72761,-0.727605 z M -67.81,-33.172263 c 0.005,-0.436562 0.0647,-0.583125 0.13178,-0.325694 0.0671,0.257431 0.0627,0.614619 -0.01,0.79375 -0.0725,0.179132 -0.12736,-0.03149 -0.12197,-0.468056 z m -130.34185,-1.003598 c 0.0994,-0.260938 0.2473,-0.407782 0.32876,-0.32632 0.0815,0.08146 1.7e-4,0.294956 -0.18065,0.474432 -0.26131,0.259362 -0.2917,0.228971 -0.14811,-0.148112 z"
       id="path3" /><path
       style="fill:#5ca4a1"
       d="m -69.36709,177.96522 c 0.001,-0.87312 0.0509,-1.19841 0.10976,-0.72286 0.0589,0.47555 0.0577,1.18992 -0.003,1.5875 -0.0604,0.39757 -0.10855,0.008 -0.10706,-0.86464 z m -168.29025,-0.79375 c 0.003,-0.58208 0.0571,-0.78905 0.1204,-0.45993 0.0633,0.32912 0.0609,0.80537 -0.005,1.05833 -0.0662,0.25297 -0.118,-0.0163 -0.11507,-0.5984 z m 139.38957,-2.4033 c 0.0127,-0.30822 0.0754,-0.37091 0.15985,-0.15985 0.0764,0.191 0.067,0.4192 -0.0209,0.50712 -0.0879,0.0879 -0.15045,-0.0684 -0.13896,-0.34727 z m 18.16921,-0.0209 c 0.1819,-0.0734 0.47956,-0.0734 0.66146,0 0.1819,0.0734 0.0331,0.13345 -0.33073,0.13345 -0.3638,0 -0.51263,-0.0601 -0.33073,-0.13345 z m -0.24804,-9.53052 c 0.19099,-0.0764 0.4192,-0.067 0.50711,0.0209 0.0879,0.0879 -0.0684,0.15046 -0.34726,0.13897 -0.30823,-0.0127 -0.37092,-0.0754 -0.15985,-0.15986 z m 1.30638,0.006 c 0.1819,-0.0734 0.47955,-0.0734 0.66146,0 0.1819,0.0734 0.0331,0.13345 -0.33073,0.13345 -0.36381,0 -0.51263,-0.06 -0.33073,-0.13345 z m 18.62875,-43.21644 c 0,-0.3638 0.06,-0.51263 0.13345,-0.33073 0.0734,0.1819 0.0734,0.47956 0,0.66146 -0.0734,0.1819 -0.13345,0.0331 -0.13345,-0.33073 z m -21.93604,-3.43782 -2.71198,-1.60434 v -2.506 c 0,-1.3783 0.0795,-2.50601 0.17672,-2.50601 0.60282,0 5.15326,2.85665 5.26829,3.3073 0.0743,0.29104 0.1,1.51561 0.057,2.72128 l -0.0781,2.19211 z m 21.97625,0.13053 c 10e-4,-0.87313 0.0509,-1.19842 0.10977,-0.72287 0.0589,0.47555 0.0577,1.18993 -0.003,1.5875 -0.0604,0.39758 -0.10855,0.008 -0.10707,-0.86463 z m -18.33823,-1.29052 c 0,-1.67009 0.10811,-2.566 0.33073,-2.74072 0.1819,-0.14277 1.37669,-0.87203 2.65509,-1.62058 l 2.32437,-1.36099 -0.0754,2.69858 -0.0754,2.69857 -2.38125,1.39036 c -1.30969,0.7647 -2.47055,1.39612 -2.57969,1.40314 -0.10914,0.007 -0.19843,-1.10373 -0.19843,-2.46836 z m -9.98802,-2.44207 -2.4474,-1.45883 v -2.64543 c 0,-1.45498 0.0893,-2.59997 0.19844,-2.54442 0.10914,0.0556 1.29976,0.7435 2.64583,1.52876 l 2.4474,1.42775 v 2.5879 c 0,1.42335 -0.0893,2.58232 -0.19844,2.5755 -0.10914,-0.007 -1.29977,-0.66887 -2.64583,-1.47123 z m 16.07343,-1.13905 v -2.62267 l 2.05052,-1.17579 c 1.12779,-0.64668 2.31841,-1.31613 2.64584,-1.48767 l 0.59531,-0.31189 v 2.63004 2.63004 l -2.52845,1.48031 c -1.39065,0.81417 -2.58128,1.48031 -2.64584,1.48031 -0.0646,0 -0.11738,-1.1802 -0.11738,-2.62268 z m -9.21748,-1.25588 c -1.35884,-0.80988 -2.37087,-1.56877 -2.24896,-1.68641 0.12191,-0.11765 1.26345,-0.81323 2.53676,-1.54575 l 2.3151,-1.33184 2.3151,1.33184 c 1.27331,0.73252 2.41694,1.4302 2.54141,1.5504 0.17789,0.1718 -4.52912,3.21597 -4.89643,3.16667 -0.0508,-0.007 -1.20415,-0.67502 -2.56298,-1.48491 z m -12.94137,-1.0615 -2.4474,-1.45895 v -2.62133 c 0,-1.44173 0.0606,-2.62132 0.1347,-2.62132 0.0741,0 1.2647,0.67078 2.64583,1.49063 l 2.51114,1.49064 v 2.6104 c 0,1.43573 -0.0893,2.60106 -0.19844,2.58964 -0.10914,-0.0114 -1.29976,-0.67729 -2.64583,-1.47971 z m 28.40258,0.87283 c -0.0831,-0.30964 -0.15271,-1.47091 -0.1547,-2.58061 l -0.004,-2.01764 2.44739,-1.39705 c 1.34607,-0.76838 2.5367,-1.44505 2.64584,-1.50371 0.10914,-0.0587 0.19844,1.07841 0.19844,2.52681 v 2.63347 l -2.49114,1.45085 c -2.36499,1.37738 -2.49879,1.42234 -2.64222,0.88788 z m -20.26664,-2.5274 c -0.65485,-0.40409 -1.83126,-1.09534 -2.61425,-1.5361 l -1.42362,-0.80139 1.95279,-1.12744 c 1.07403,-0.62009 2.26535,-1.30616 2.64738,-1.52461 0.66515,-0.38033 0.79727,-0.33792 3.11618,1.0004 1.33187,0.76867 2.47892,1.49036 2.549,1.60376 0.0972,0.15721 -4.16138,2.83055 -4.89594,3.07349 -0.0775,0.0256 -0.6767,-0.28402 -1.33154,-0.68811 z m 10.64599,-0.9136 -2.45087,-1.40691 2.57894,-1.5229 2.57894,-1.52289 2.18111,1.15182 c 3.69699,1.95234 3.64885,1.73236 0.73012,3.33665 -3.05029,1.67659 -2.6306,1.67926 -5.61824,-0.0358 z m -18.14982,-3.4311 c -1.28945,-0.7682 -2.36101,-1.475 -2.38125,-1.57067 -0.0202,-0.0957 1.08054,-0.8342 2.44618,-1.64118 l 2.48298,-1.46723 2.61025,1.50989 c 1.43564,0.83044 2.60821,1.57638 2.60572,1.65764 -0.005,0.17387 -4.94344,2.92999 -5.22648,2.91707 -0.10612,-0.005 -1.24795,-0.63733 -2.5374,-1.40552 z m 12.20343,0.004 c -2.77343,-1.64052 -2.74644,-1.50249 -0.53242,-2.72294 0.98227,-0.54146 2.08671,-1.19126 2.45432,-1.444 0.65923,-0.45324 0.70359,-0.43973 3.24114,0.9874 1.41503,0.79581 2.57017,1.52908 2.56699,1.62949 -0.007,0.21738 -4.87285,2.97028 -5.19513,2.93911 -0.12267,-0.0119 -1.26338,-0.63694 -2.5349,-1.38906 z m 12.56945,0.1314 c -3.12131,-1.79265 -3.11265,-1.61346 -0.15896,-3.28925 2.94373,-1.67015 2.3753,-1.7067 5.98097,0.3846 2.11964,1.2294 2.15441,1.11499 -0.85965,2.8287 -2.83687,1.61296 -2.30046,1.60475 -4.96236,0.0759 z m -16.6076,-2.54093 c -0.29104,-0.19406 -1.46653,-0.88839 -2.61219,-1.54297 l -2.08304,-1.19013 1.95074,-1.126237 c 1.07291,-0.61943 2.26136,-1.30382 2.64101,-1.52086 0.65907,-0.37678 0.80526,-0.33026 3.23486,1.02943 1.39953,0.78323 2.51227,1.529507 2.47277,1.658397 -0.0575,0.18769 -4.86085,3.10958 -5.02882,3.05907 -0.0254,-0.008 -0.28428,-0.17265 -0.57533,-0.3667 z m 10.31875,-1.09411 c -1.16416,-0.66339 -2.21964,-1.30722 -2.3455,-1.43073 -0.24604,-0.24143 0.83444,-0.982967 3.44907,-2.367097 l 1.63273,-0.86433 2.52868,1.41478 c 1.39077,0.77813 2.53127,1.485337 2.53445,1.571587 0.009,0.23624 -4.86281,2.88619 -5.30164,2.88393 -0.20961,-10e-4 -1.33362,-0.54475 -2.49779,-1.20814 z m -6.43125,-3.738787 -2.4625,-1.46778 2.4625,-1.42018 c 1.35438,-0.7811 2.6422,-1.42094 2.86184,-1.42187 0.59611,-0.003 5.3057,2.73377 5.08372,2.95367 -0.41799,0.41408 -4.86599,2.86416 -5.16442,2.84471 -0.17525,-0.0114 -1.42676,-0.68127 -2.78114,-1.48855 z m -143.6486,-50.797716 c 0.25743,-0.06708 0.61462,-0.06267 0.79375,0.0098 0.17913,0.07248 -0.0315,0.127362 -0.46805,0.12197 -0.43657,-0.0054 -0.58313,-0.06469 -0.3257,-0.131774 z m 16.26684,0.0081 c 0.1819,-0.0734 0.47956,-0.0734 0.66146,0 0.1819,0.0734 0.0331,0.133452 -0.33073,0.133452 -0.3638,0 -0.51263,-0.06005 -0.33073,-0.133452 z m 13.3162,-0.243695 c 0.0127,-0.308225 0.0754,-0.37092 0.15985,-0.159853 0.0764,0.190996 0.067,0.419199 -0.0209,0.507118 -0.0879,0.08792 -0.15045,-0.06835 -0.13896,-0.347265 z m 4.54821,0.235569 c 0.25743,-0.06708 0.61462,-0.06267 0.79375,0.0098 0.17913,0.07248 -0.0315,0.127362 -0.46806,0.12197 -0.43656,-0.0054 -0.58312,-0.06469 -0.32569,-0.131774 z m 131.11254,0.0026 c 0.19099,-0.07643 0.41919,-0.06703 0.50711,0.02089 0.0879,0.08792 -0.0684,0.150452 -0.34726,0.138964 -0.30823,-0.0127 -0.37092,-0.07539 -0.15985,-0.159852 z m -179.49883,-3.523386 c 0,-1.964532 0.0417,-2.768203 0.0926,-1.785938 0.0509,0.982266 0.0509,2.589609 0,3.571875 -0.0509,0.982266 -0.0926,0.178594 -0.0926,-1.785937 z m 10.83323,1.5875 c 0,-1.091407 0.0467,-1.537891 0.10379,-0.992188 0.0571,0.545703 0.0571,1.438672 0,1.984375 -0.0571,0.545703 -0.10379,0.09922 -0.10379,-0.992187 z m 34.13768,-0.529167 c 0,-1.382448 0.0446,-1.947995 0.0991,-1.256771 0.0545,0.691224 0.0545,1.822318 0,2.513542 -0.0545,0.691224 -0.0991,0.125677 -0.0991,-1.256771 z m -43.94415,1.058333 c 0,-0.654844 0.0516,-0.922734 0.11466,-0.595312 0.0631,0.327422 0.0631,0.863203 0,1.190625 -0.0631,0.327422 -0.11466,0.05953 -0.11466,-0.595313 z m 25.16436,-1.984375 c 5.2e-4,-1.74625 0.0433,-2.426193 0.0952,-1.510985 0.0518,0.915207 0.0514,2.343957 -9.5e-4,3.174999 -0.0523,0.831043 -0.0947,0.08224 -0.0942,-1.664014 z m 10.16813,2.597385 c 0.191,-0.07643 0.4192,-0.06703 0.50712,0.02089 0.0879,0.08792 -0.0684,0.150452 -0.34727,0.138964 -0.30822,-0.0127 -0.37092,-0.07539 -0.15985,-0.159852 z m 6.08542,0 c 0.19099,-0.07643 0.4192,-0.06703 0.50711,0.02089 0.0879,0.08792 -0.0684,0.150452 -0.34726,0.138964 -0.30823,-0.0127 -0.37092,-0.07539 -0.15985,-0.159852 z m 6.08541,0 c 0.191,-0.07643 0.4192,-0.06703 0.50712,0.02089 0.0879,0.08792 -0.0683,0.150452 -0.34726,0.138964 -0.30823,-0.0127 -0.37092,-0.07539 -0.15986,-0.159852 z m -9.68417,-3.170649 c -0.0391,-2.072057 -0.15458,-2.994373 -0.38653,-3.087965 -0.25904,-0.104526 -0.25724,-0.13798 0.008,-0.154341 0.53384,-0.03289 0.61251,0.486742 0.52031,3.436582 l -0.0863,2.760238 z m -34.74996,2.094618 c -0.32911,-0.419643 -0.31975,-0.429002 0.0999,-0.09989 0.25466,0.199719 0.46302,0.408078 0.46302,0.46302 0,0.217761 -0.21728,0.0776 -0.56292,-0.363126 z m 39.74213,-0.220486 c 0.0127,-0.308224 0.0754,-0.370919 0.15985,-0.159852 0.0764,0.190996 0.067,0.419199 -0.0209,0.507118 -0.0879,0.08792 -0.15045,-0.06835 -0.13896,-0.347266 z m -31.98389,-0.507118 c 0.005,-0.436562 0.0647,-0.583124 0.13177,-0.325693 0.0671,0.257431 0.0627,0.614618 -0.01,0.79375 -0.0725,0.179131 -0.12736,-0.03149 -0.12196,-0.468057 z m 34.13125,0 c 0.005,-0.436562 0.0647,-0.583124 0.13177,-0.325693 0.0671,0.257431 0.0627,0.614618 -0.01,0.79375 -0.0725,0.179131 -0.12736,-0.03149 -0.12197,-0.468057 z m -17.75777,-0.02205 c 0.0127,-0.308225 0.0754,-0.37092 0.15985,-0.159853 0.0764,0.190996 0.067,0.419199 -0.0209,0.507118 -0.0879,0.08792 -0.15046,-0.06835 -0.13897,-0.347265 z m 15.61041,-0.529167 c 0.0127,-0.308224 0.0754,-0.370919 0.15985,-0.159852 0.0764,0.190996 0.067,0.419199 -0.0209,0.507118 -0.0879,0.08792 -0.15045,-0.06835 -0.13896,-0.347266 z m -41.82505,-1.565449 c 0.49365,-0.509323 0.95708,-0.926042 1.02984,-0.926042 0.0728,0 -0.2716,0.416719 -0.76526,0.926042 -0.49365,0.509323 -0.95708,0.926041 -1.02984,0.926041 -0.0728,0 0.2716,-0.416718 0.76526,-0.926041 z m 46.23593,0.221646 c 0.1819,-0.0734 0.47956,-0.0734 0.66146,0 0.1819,0.0734 0.0331,0.133452 -0.33073,0.133452 -0.3638,0 -0.51263,-0.06005 -0.33073,-0.133452 z m -39.81475,-0.801875 c 0.25743,-0.06708 0.61462,-0.06267 0.79375,0.0098 0.17913,0.07248 -0.0315,0.127362 -0.46806,0.12197 -0.43656,-0.0054 -0.58312,-0.06469 -0.32569,-0.131774 z m 33.72934,0.0081 c 0.1819,-0.0734 0.47955,-0.0734 0.66145,0 0.18191,0.0734 0.0331,0.133452 -0.33072,0.133452 -0.36381,0 -0.51263,-0.06005 -0.33073,-0.133452 z m -15.875,-10.054141 c 0.1819,-0.0734 0.47956,-0.0734 0.66146,0 0.1819,0.0734 0.0331,0.133452 -0.33073,0.133452 -0.36381,0 -0.51263,-0.06005 -0.33073,-0.133452 z m -3.54775,-0.908387 c -2.65877,-0.444132 -4.26941,-1.323219 -29.32673,-16.00659 -4.63847,-2.718105 -5.42036,-3.642366 -5.4226,-6.4100242 l -0.001,-1.672106 1.12448,0.972194 c 1.22137,1.055962 26.24644,15.6712832 29.69947,17.3452982 2.76624,1.341059 5.34406,1.746493 8.50783,1.338091 2.93247,-0.378543 3.35531,-0.583622 14.13329,-6.85471 5.00989,-2.914968 10.89481,-6.338686 13.07764,-7.608263 4.91224,-2.8570822 6.64212,-3.9689702 7.21391,-4.6367712 0.68649,-0.801774 0.85588,-0.633015 0.85588,0.852754 0,3.0616282 -0.71682,3.7782762 -8.20209,8.2001682 -26.26993,15.51888 -26.04796,15.417363 -31.65968,14.479959 z m -3.52986,-22.9383942 c -2.98317,-1.72081 -8.07309,-4.657769 -11.31093,-6.526577 l -5.88698,-3.3978319 V -17.49774 c 0,-14.25212 0.0419,-15.847368 0.41207,-15.705303 1.71252,0.657158 22.05244,12.753869 22.23126,13.221547 0.0637,0.16664 0.0849,7.299887 0.0472,15.8516605 l -0.0687,15.5486785 z m 6.37089,2.7010042 c 0.0127,-0.308225 0.0754,-0.370919 0.15985,-0.159853 0.0764,0.190996 0.067,0.4192 -0.0209,0.507118 -0.0879,0.08792 -0.15045,-0.06835 -0.13896,-0.347265 z m -38.57076,-4.8727432 c 0,-0.800365 0.0496,-1.127786 0.11022,-0.727604 0.0606,0.400182 0.0606,1.055026 0,1.455208 -0.0606,0.400182 -0.11022,0.07276 -0.11022,-0.727604 z m 38.64058,-5.4239581 c 9.6e-4,-1.1641666 0.0475,-1.6075038 0.10336,-0.9851937 0.0559,0.6223101 0.0551,1.57481 -0.002,2.1166668 -0.0568,0.541856 -0.10258,0.03269 -0.10162,-1.1314731 z m -0.0114,-7.5406246 c 0,-0.8003645 0.0496,-1.1277864 0.11022,-0.7276041 0.0606,0.4001822 0.0606,1.055026 0,1.4552082 -0.0606,0.4001823 -0.11022,0.07276 -0.11022,-0.7276041 z m -6.1647,-17.5073721 c -1.96453,-1.174862 -6.36985,-3.740075 -9.78959,-5.700473 -7.15913,-4.104041 -7.22682,-4.152822 -5.42395,-3.908461 6.07707,0.823686 12.07612,4.235758 17.57058,9.993609 2.1386,2.241118 1.99425,2.21756 -2.35704,-0.384675 z m 8.46803,1.370507 c 3.51048,-4.954915 12.30988,-10.345358 17.92415,-10.980189 2.1571,-0.243912 2.15254,-0.237798 -1.32291,1.774148 -8.7579,5.069964 -15.77525,9.168554 -16.47015,9.61964 l -0.78525,0.509725 z m -0.26595,-1.160945 c 0,-0.05494 0.20836,-0.263302 0.46302,-0.463021 0.41964,-0.329108 0.429,-0.319749 0.0999,0.0999 -0.34564,0.440729 -0.56291,0.580887 -0.56291,0.363126 z m -6.35,-1.355314 c -0.64268,-0.654843 -1.10898,-1.190625 -1.03622,-1.190625 0.0728,0 0.65812,0.535782 1.3008,1.190625 0.64268,0.654844 1.10898,1.190625 1.03622,1.190625 -0.0728,0 -0.65812,-0.535781 -1.3008,-1.190625 z m 9.77853,-6.81302 c 1.09642,-1.168186 1.33397,-1.37824 1.33397,-1.179568 0,0.04246 -0.56555,0.608009 -1.25677,1.256771 l -1.25677,1.179568 z m 0.67251,0.330729 c 0.26339,-0.291042 0.53842,-0.529167 0.61118,-0.529167 0.0728,0 -0.0832,0.238125 -0.3466,0.529167 -0.26338,0.291042 -0.53842,0.529167 -0.61118,0.529167 -0.0728,0 0.0832,-0.238125 0.3466,-0.529167 z m -24.45307,-2.800174 c 0.0127,-0.308224 0.0754,-0.370919 0.15986,-0.159852 0.0764,0.190996 0.067,0.419199 -0.0209,0.507118 -0.0879,0.08792 -0.15046,-0.06835 -0.13897,-0.347266 z m -4.44902,-0.03552 c 0.40219,-0.06082 0.9975,-0.05919 1.32292,0.0036 0.32542,0.0628 -0.004,0.112561 -0.73124,0.110574 -0.72761,-0.002 -0.99386,-0.05337 -0.59168,-0.114185 z m 43.27227,0.0091 c 0.191,-0.07643 0.4192,-0.06703 0.50712,0.02089 0.0879,0.08792 -0.0683,0.150453 -0.34726,0.138965 -0.30823,-0.0127 -0.37092,-0.07539 -0.15986,-0.159853 z m 1.5875,0 c 0.191,-0.07643 0.4192,-0.06703 0.50712,0.02089 0.0879,0.08792 -0.0683,0.150453 -0.34726,0.138965 -0.30823,-0.0127 -0.37092,-0.07539 -0.15986,-0.159853 z"
       id="path2" /><path
       style="fill:#141313"
       d="m -90.96515,181.62867 c -0.0751,-0.0751 -0.0131,-0.49058 0.1377,-0.92328 0.23439,-0.67237 0.13046,-1.13363 -0.71503,-3.17345 -0.68103,-1.64303 -0.90407,-2.47196 -0.71579,-2.66023 0.43991,-0.43992 0.67949,-0.11131 1.36941,1.87829 0.79612,2.29583 0.76217,2.29535 1.69378,0.0237 0.62726,-1.52948 1.47977,-2.47328 1.49294,-1.65279 0.0203,1.26486 -2.82708,6.94364 -3.26301,6.50772 z m -146.31354,-1.85105 c -0.0994,-0.0994 -0.1808,-1.70877 -0.1808,-3.57629 v -3.39548 l 1.65365,9.9e-4 c 4.45393,0.003 5.05767,4.05785 0.64886,4.35823 l -1.37646,0.0938 -0.0828,1.14694 c -0.0845,1.16998 -0.33842,1.69582 -0.6624,1.37184 z m 3.47045,-3.84969 c 0.92207,-0.92206 -0.12025,-2.32833 -1.72574,-2.32833 -0.86422,0 -0.86717,0.005 -0.86717,1.32291 v 1.32292 h 1.13771 c 0.62574,0 1.28058,-0.14287 1.4552,-0.3175 z m 2.60376,3.43717 c -0.36817,-1.37444 -0.18938,-4.18702 0.27756,-4.3662 0.24656,-0.0946 0.49282,-0.0346 0.54894,0.13375 0.0712,0.21355 0.29404,0.17935 0.74143,-0.11379 0.70085,-0.45922 1.43748,-0.32642 1.43748,0.25915 0,0.2204 -0.26934,0.37211 -0.66064,0.37211 -1.1127,0 -1.42637,0.49481 -1.5106,2.38296 -0.0784,1.7568 -0.52804,2.47484 -0.83417,1.33202 z m 4.40745,0.1868 c -1.43116,-1.00242 -1.31375,-3.72182 0.19436,-4.5017 1.9399,-1.00316 3.95985,0.1464 3.95985,2.25356 0,2.10857 -2.45595,3.43765 -4.15421,2.24814 z m 2.684,-0.98409 c 1.20097,-1.71462 -0.4985,-3.92424 -2.11123,-2.74498 -0.70696,0.51695 -0.70696,2.44492 0,2.96187 0.74534,0.545 1.64211,0.45288 2.11123,-0.21689 z m 3.03736,0.60839 c -1.63132,-1.63131 -0.57989,-4.51827 1.64554,-4.51827 0.98761,0 1.81439,0.42622 1.81439,0.93535 0,0.46576 -0.0558,0.47134 -0.89408,0.0894 -1.52744,-0.69595 -2.89081,0.6784 -2.27631,2.29465 0.42182,1.10947 2.02676,1.6941 2.50894,0.91393 0.24486,-0.39619 0.66145,-0.31873 0.66145,0.12299 0,1.14058 -2.37035,1.25153 -3.45993,0.16195 z m 5.65817,0.51982 c -1.57826,-0.67258 -1.85759,-3.25746 -0.48005,-4.44236 1.47065,-1.265 3.83806,-0.33427 3.83806,1.50891 v 0.80578 h -1.87148 c -1.62566,0 -1.86,0.0596 -1.78407,0.45392 0.153,0.79443 1.39363,1.30442 2.32136,0.95424 0.83815,-0.31637 1.37119,-0.0164 0.86693,0.48785 -0.37599,0.37599 -2.20762,0.52277 -2.89075,0.23166 z m 2.23549,-3.51673 c -0.50269,-0.76085 -1.4245,-0.89905 -2.0743,-0.31099 -0.80394,0.72756 -0.61065,0.9063 0.98014,0.9063 1.48272,0 1.48622,-0.002 1.09416,-0.59531 z m 2.60346,3.43434 c -0.64747,-0.4855 -0.33346,-1.09946 0.36981,-0.72308 0.71006,0.38001 1.73731,0.32713 2.09845,-0.10802 0.37713,-0.45441 0.13469,-0.64585 -1.53764,-1.21418 -1.53097,-0.5203 -1.88316,-1.34621 -0.9654,-2.26396 0.71093,-0.71093 1.80998,-0.83925 2.90702,-0.33941 1.06307,0.48437 0.79106,0.80128 -0.51912,0.6048 -2.16026,-0.32395 -2.58607,0.93417 -0.45119,1.33311 1.27509,0.23827 1.64422,0.56587 1.64422,1.45921 0,1.29221 -2.37437,2.13018 -3.54615,1.25153 z m 4.92775,0.01 c -0.63235,-0.30469 -0.65399,-0.94327 -0.0256,-0.75589 1.11245,0.33173 2.00648,0.30323 2.31952,-0.074 0.47928,-0.5775 0.21288,-0.85136 -1.16584,-1.19853 -1.9463,-0.49008 -2.26853,-2.39087 -0.48136,-2.83942 0.95128,-0.23875 2.6019,0.20287 2.6019,0.69613 0,0.22748 -0.1694,0.34781 -0.39688,0.28192 -1.1374,-0.32946 -2.24896,-0.146 -2.24896,0.37117 0,0.40178 0.25807,0.57184 1.1292,0.74411 1.37325,0.27157 2.11464,1.1722 1.66167,2.01858 -0.55804,1.0427 -2.09014,1.38396 -3.39364,0.75589 z m 5.58101,0.0734 c -1.39085,-0.59297 -1.7118,-3.38516 -0.50813,-4.42052 1.331,-1.14487 3.42113,-0.64567 3.85353,0.92036 0.35034,1.26882 0.22205,1.3718 -1.70906,1.3718 -1.87825,0 -2.14917,0.17614 -1.56146,1.01521 0.43776,0.625 1.40456,0.74568 2.26872,0.28319 0.68945,-0.36898 1.20507,0.0645 0.63725,0.53576 -0.52356,0.43452 -2.25166,0.60508 -2.98085,0.2942 z m 2.23392,-3.51742 c -0.48566,-0.73565 -1.57693,-0.90108 -2.15181,-0.3262 -0.72234,0.72234 -0.49381,0.92151 1.05734,0.92151 1.48263,0 1.4862,-0.002 1.09447,-0.59531 z m 2.50382,3.45855 c -0.70267,-0.35546 -0.62991,-0.91936 0.10208,-0.79121 1.93846,0.33938 2.13417,0.33515 2.45641,-0.0531 0.45401,-0.54704 0.19875,-0.88313 -0.83427,-1.09848 -1.96256,-0.40911 -2.70828,-1.7505 -1.45945,-2.62521 1.02543,-0.71824 3.11613,-0.42443 3.11613,0.43791 0,0.11814 -0.47561,0.13875 -1.0569,0.0458 -2.00026,-0.31985 -2.38197,0.72414 -0.45329,1.23977 1.44207,0.38553 1.77477,0.67962 1.77477,1.56882 0,1.26903 -2.16266,2.02586 -3.64548,1.27574 z m 97.90329,-0.0827 c -0.8498,-0.36936 -1.08287,-0.75943 -0.62342,-1.04338 0.13006,-0.0804 0.67817,0.0384 1.21803,0.26397 1.18805,0.4964 2.42334,0.2896 2.6564,-0.44472 0.22793,-0.71815 -0.19866,-1.14708 -1.52808,-1.53645 -2.11585,-0.61969 -2.95074,-1.83871 -2.11576,-3.08921 0.57815,-0.86585 2.60714,-1.17518 3.88611,-0.59245 0.86536,0.39429 0.93255,1.15775 0.0786,0.89307 -1.8456,-0.57203 -2.92571,-0.47152 -3.22168,0.29978 -0.24089,0.62774 0.30332,1.07321 1.96544,1.60886 0.97903,0.31552 1.5582,0.67977 1.81726,1.14291 1.12682,2.0145 -1.53851,3.62524 -4.13289,2.49762 z m 10.81834,-0.033 c -0.77774,-0.54475 -0.36904,-1.09197 0.47727,-0.63904 0.87651,0.4691 1.98474,0.24532 2.07967,-0.41992 0.0662,-0.46402 -0.12086,-0.611 -1.08752,-0.8544 -1.34886,-0.33965 -1.84682,-0.82198 -1.72474,-1.67063 0.13232,-0.91985 1.27395,-1.44056 2.48787,-1.13473 1.43784,0.36224 1.55085,0.97997 0.13795,0.75403 -1.03276,-0.16514 -1.87791,0.15063 -1.87791,0.70164 0,0.11738 0.64195,0.40003 1.42654,0.62812 1.82379,0.53019 2.27822,1.47434 1.2193,2.53326 -0.65314,0.65314 -2.27604,0.70572 -3.13843,0.10167 z m 5.67052,0.0769 c -0.35845,-0.26211 -0.51374,-0.8297 -0.61529,-2.24896 -0.0974,-1.36173 -0.23796,-1.89837 -0.49715,-1.89837 -0.19872,0 -0.36132,-0.11906 -0.36132,-0.26458 0,-0.14552 0.17068,-0.26459 0.3793,-0.26459 0.2171,0 0.4151,-0.31115 0.46302,-0.7276 0.10542,-0.91615 0.79888,-0.96164 1.0083,-0.0661 0.11169,0.4776 0.35838,0.68515 0.88751,0.7467 0.92016,0.10702 0.7826,0.67851 -0.19099,0.7934 -1.12337,0.13258 -0.97116,3.30771 0.16484,3.43842 0.80386,0.0925 0.95809,0.43267 0.30909,0.68172 -0.6337,0.24317 -1.01975,0.19577 -1.54731,-0.18999 z m 3.8723,0.0734 c -0.93874,-0.37674 -1.49979,-1.97485 -1.12844,-3.21429 0.74708,-2.49352 4.51363,-2.23947 4.51363,0.30444 v 0.80578 h -1.85208 c -1.97139,0 -2.08503,0.0789 -1.44021,0.99946 0.4505,0.64318 1.8976,0.81856 2.42257,0.29359 0.16194,-0.16194 0.42388,-0.21445 0.58208,-0.11668 1.18215,0.73061 -1.54987,1.54883 -3.09755,0.9277 z m 2.59144,-3.1214 c 0,-1.07006 -1.93607,-1.34884 -2.58164,-0.37173 -0.39206,0.5934 -0.38856,0.59531 1.09416,0.59531 0.81811,0 1.48748,-0.10061 1.48748,-0.22358 z m 5.46086,3.215 c -0.0931,-0.0931 -0.17082,-0.77443 -0.17281,-1.51417 -0.005,-1.89279 -0.22635,-2.51681 -0.95748,-2.70032 -1.07441,-0.26966 -1.42015,0.29364 -1.42015,2.3138 0,1.44111 -0.0826,1.81968 -0.39688,1.81968 -0.32334,0 -0.39687,-0.44064 -0.39687,-2.37828 0,-2.29345 0.0212,-2.37787 0.59531,-2.3666 0.32742,0.006 0.92251,-0.0683 1.32242,-0.16601 0.46755,-0.11426 0.94391,-0.0356 1.3344,0.22021 0.52082,0.34126 0.67877,0.34564 1.10939,0.0308 0.68263,-0.49915 1.5537,-0.46142 2.21328,0.0959 0.85743,0.72445 0.87803,5.21442 0.0215,4.68506 -0.13547,-0.0837 -0.2463,-0.8674 -0.2463,-1.7415 0,-1.8078 -0.32313,-2.61283 -1.04875,-2.61283 -0.94972,0 -1.3325,0.723 -1.3325,2.51683 0,1.56822 -0.22018,2.20189 -0.62456,1.79751 z m 5.42363,-0.24392 c -0.76056,-0.53271 -0.37654,-1.09598 0.44679,-0.65535 0.75717,0.40523 1.77443,0.35978 2.15285,-0.0962 0.43546,-0.52469 0.16721,-0.8628 -0.85331,-1.07554 -1.29461,-0.26987 -2.04749,-0.84827 -2.04749,-1.57298 0,-1.20519 1.68433,-1.81657 3.30599,-1.20002 1.0339,0.39309 0.54358,0.80405 -0.74807,0.62701 -0.88031,-0.12066 -1.20684,-0.0527 -1.50984,0.31425 -0.43284,0.52418 -0.57006,0.42407 1.59776,1.16554 1.03799,0.35503 1.20101,0.51421 1.27163,1.24172 0.14423,1.48564 -2.14901,2.2793 -3.61631,1.25156 z M -217.0257,165.09947 c -2.38611,-0.34952 -3.75348,-0.96044 -9.00628,-4.02388 -2.57435,-1.50136 -8.96688,-5.21981 -14.20563,-8.26321 -12.93016,-7.51166 -12.51243,-7.07595 -12.59768,-13.13992 -0.0797,-5.67003 0.1977,-6.09629 6.24768,-9.60022 1.45521,-0.8428 5.32474,-3.07589 8.59896,-4.96242 7.39141,-4.25876 6.88481,-3.77361 5.61458,-5.37692 -1.27968,-1.61523 -4.07098,-4.21392 -5.09507,-4.7435 -0.93382,-0.4829 -1.01356,-0.38652 -2.63083,3.17999 -0.59389,1.30969 -1.225,2.6663 -1.40247,3.01468 -0.30753,0.60372 -10.15223,6.08047 -10.97215,6.10397 -0.87268,0.025 0.20551,-4.33015 1.85866,-7.50771 1.91082,-3.67283 4.38107,-5.69724 9.76249,-8.00053 1.21183,-0.51867 4.0488,-1.7537 6.30437,-2.74451 9.86429,-4.33308 13.3155,-3.772 18.63215,3.02914 1.35426,1.73239 1.67835,2.00392 2.39181,2.00392 2.07294,0 5.47831,1.35147 8.56186,3.3979 0.90624,0.60143 1.49722,0.85083 1.56134,0.6589 0.19984,-0.59819 3.69877,-6.32727 4.94224,-8.09231 1.47112,-2.08818 1.48161,-1.81796 -0.26323,-6.78273 -0.63355,-1.80269 -1.08025,-3.393557 -0.99267,-3.535267 0.28622,-0.4631 16.73276,-6.89769 22.14158,-8.662728 2.5794,-0.841725 2.46612,-1.321453 1.91972,8.129858 -0.25881,4.476727 -0.55293,9.953287 -0.65361,12.170127 -0.10069,2.21684 -0.29809,4.13175 -0.43869,4.25536 -0.14059,0.12361 -1.44625,0.13245 -2.90146,0.0197 l -2.64583,-0.20508 -1.16065,1.24079 c -1.93068,2.06398 -5.85081,8.44353 -5.85081,9.52149 0,0.12181 1.8157,1.27371 4.03489,2.55978 8.71469,5.05033 8.66665,4.99093 8.66252,10.71005 -0.004,5.90073 -0.14527,6.08072 -8.64937,11.03983 -3.02679,1.76505 -8.59887,5.02507 -12.38242,7.2445 -12.64123,7.41534 -14.41553,8.08906 -19.386,7.36099 z m 4.26037,-0.76753 c 2.94346,-0.42556 3.67607,-0.80345 18.96209,-9.78114 4.29287,-2.52126 9.17443,-5.3883 10.84792,-6.3712 4.53138,-2.66145 5.55625,-3.9111 5.55625,-6.77489 v -1.46877 l -1.00619,0.90903 c -1.0473,0.94617 -5.55224,3.66644 -19.63131,11.85419 -12.46506,7.24912 -12.63461,7.31771 -17.50098,7.08024 -4.14457,-0.20225 -2.09589,0.83564 -28.11459,-14.24321 -3.62423,-2.10038 -6.98775,-4.19013 -7.47447,-4.64387 l -0.88496,-0.82499 v 1.56109 c 0,2.8648 0.75499,3.81601 5.03044,6.33789 2.511,1.48111 15.809,9.20917 22.42714,13.0334 4.01317,2.31899 5.63234,3.01633 7.71554,3.32293 2.0476,0.30136 2.05286,0.30137 4.07312,0.009 z m 3.31566,-6.15639 c 1.35678,-0.54962 12.38745,-6.87176 24.90685,-14.27517 6.44331,-3.81029 7.14375,-4.49129 7.14375,-6.94557 0,-2.4821 -0.74511,-3.19836 -7.27604,-6.9944 -5.72294,-3.32639 -4.99171,-3.314 -6.74853,-0.1144 -1.41254,2.57259 -2.22613,3.26619 -7.3436,6.26061 -17.30198,10.12402 -20.1329,9.40159 -28.29847,-7.2216 -1.39391,-2.83766 -2.8208,-5.61354 -3.17087,-6.16863 l -0.6365,-1.00925 -0.84581,0.53603 c -0.46519,0.29481 -4.70414,2.77303 -9.41989,5.50716 -4.71574,2.73413 -9.02548,5.41135 -9.57719,5.94938 -1.87657,1.83004 -1.92739,4.59024 -0.11781,6.39946 1.10929,1.10907 28.88907,17.31869 31.23367,18.22498 2.73424,1.05691 7.34102,0.98946 10.15044,-0.1486 z m -5.0172,-16.70931 c 0.92905,-0.48043 2.30687,-2.03334 2.88938,-3.25656 l 0.44405,-0.93244 -0.78997,-0.55809 c -3.46798,-2.45002 -6.32418,-6.19492 -9.73719,-12.76687 -6.38468,-12.29407 -10.65338,-15.08901 -18.01866,-11.79776 l -1.55831,0.69635 1.3452,0.30296 c 4.77459,1.07534 8.41967,5.20707 13.41145,15.20202 5.49373,10.99999 8.90226,14.71956 12.01405,13.11039 z m 4.87962,-0.57759 c 5.28156,-2.21199 6.93826,-4.24373 10.21934,-12.5328 3.02807,-7.64988 6.97816,-14.04261 11.72084,-18.96871 l 1.06803,-1.10933 0.96371,0.49164 c 0.53004,0.27041 2.5589,1.69235 4.50858,3.15986 1.94968,1.46751 3.61591,2.66821 3.70274,2.66821 0.0868,0 0.37104,-4.07789 0.6316,-9.06198 0.26056,-4.98409 0.53966,-10.215767 0.62023,-11.625947 l 0.14648,-2.563976 -2.8795,1.017856 c -5.76186,2.03672 -19.68054,7.36234 -19.68054,7.53024 0,0.0404 1.25016,0.879757 2.77813,1.865297 1.52797,0.98554 2.77812,1.91931 2.77812,2.07504 0,0.15573 -0.88088,1.42692 -1.9575,2.82486 -4.86542,6.31751 -8.56922,12.84425 -10.88619,19.1834 -0.69145,1.89177 -1.84702,5.04693 -2.56793,7.01146 -1.55551,4.23884 -2.76483,6.6362 -4.05604,8.04074 l -0.94624,1.02928 1.10367,-0.17649 c 0.60701,-0.0971 1.83662,-0.48346 2.73247,-0.85865 z m 10.11774,-5.34034 c 6.3391,-3.62599 6.17814,-3.44785 9.97466,-11.03897 1.63155,-3.26228 4.21588,-7.2586 5.45793,-8.43997 0.44936,-0.42741 0.81701,-0.88461 0.81701,-1.01602 0,-0.17659 -2.88645,-5.12853 -3.32123,-5.69782 -0.0347,-0.0454 -0.99826,1.06488 -2.14124,2.46738 -5.01457,6.15314 -7.01919,9.59571 -10.15677,17.44243 -1.04374,2.61028 -2.35431,5.49754 -2.91239,6.41615 -0.55807,0.91861 -0.98228,1.67019 -0.94269,1.67019 0.0396,0 1.49072,-0.81151 3.22472,-1.80337 z m -10.63315,-0.51173 c 0.26591,-0.69122 0.99782,-2.67579 1.62646,-4.41015 l 1.14299,-3.15338 -1.66479,-2.40287 c -0.91564,-1.32158 -2.41495,-3.83162 -3.33182,-5.57787 -6.16419,-11.74024 -10.60234,-14.39317 -18.64737,-11.14658 -3.79888,1.53305 -3.939,1.63874 -2.46548,1.8597 4.24684,0.63686 8.10939,4.70472 12.26885,12.92099 3.06296,6.05036 5.72076,9.77549 8.57108,12.01313 1.83081,1.43727 1.9088,1.43406 2.50008,-0.10297 z m -36.19545,-11.80524 3.99367,-2.01201 0.73989,-1.78955 c 0.40695,-0.98426 1.15073,-2.54268 1.65285,-3.46318 1.09792,-2.01269 1.08497,-2.03055 -1.47244,-2.0305 -3.38974,7e-5 -6.40862,2.20802 -8.4906,6.20985 -0.80103,1.53968 -2.13683,5.31756 -2.13683,6.04335 0,0.0512 0.38696,-0.14073 0.8599,-0.42646 0.47294,-0.28572 2.65704,-1.4249 4.85356,-2.5315 z m 39.53029,2.74294 c 0,-0.1457 0.63683,-1.74843 1.41517,-3.56163 l 1.41518,-3.29671 -1.48132,-1.03448 c -2.7225,-1.90127 -6.3247,-3.36822 -7.78681,-3.17109 -0.60224,0.0812 -0.55506,0.2127 1.40658,3.92048 2.68704,5.07887 5.0312,8.40717 5.0312,7.14343 z m 27.33853,-11.72703 c -0.90524,-0.74419 -4.83355,-3.6798 -5.35285,-4.00016 -0.43037,-0.2655 -0.45501,-0.3142 1.22263,2.41676 1.24881,2.03291 1.2751,2.04757 3.86563,2.15591 l 1.01249,0.0423 z m -15.88291,-8.40671 c 0.55252,-0.72518 1.06375,-1.47268 1.13606,-1.66113 0.12028,-0.31345 -4.05216,-3.23669 -4.28604,-3.00281 -0.12745,0.12745 1.84848,6.0126 2.01311,5.99588 0.0728,-0.007 0.58435,-0.60676 1.13687,-1.33194 z m 114.21945,59.27661 c -3.11026,-0.35308 -3.06236,-0.32865 -19.84174,-10.12036 -17.13788,-10.0009 -16.40417,-9.29843 -16.40417,-15.70562 0,-5.90212 -0.33404,-5.60094 16.99773,-15.32583 l 2.31336,-1.29803 0.002,-2.82625 c 0.002,-3.24781 -0.21257,-2.93793 3.37341,-4.87159 1.05405,-0.56838 1.91726,-1.11323 1.91823,-1.21079 9.7e-4,-0.0976 -1.19211,-0.87071 -2.65129,-1.71811 l -2.65307,-1.54073 0.0734,-3.43536 0.0734,-3.43535 1.71979,-1.03989 c 0.94588,-0.57194 5.14532,-2.995167 9.33208,-5.384957 l 7.6123,-4.34508 1.64812,0.91849 c 0.90647,0.50517 2.48156,1.38549 3.5002,1.95626 2.25094,1.26125 12.34607,7.078997 13.09152,7.544537 0.4923,0.30745 0.53453,0.60874 0.53453,3.81414 v 3.48031 l -2.65943,1.50578 c -3.09624,1.75311 -3.10637,1.62472 0.27247,3.45632 l 2.38696,1.29392 v 2.84971 2.84971 l 0.99218,0.62124 c 0.54571,0.34168 3.96875,2.32252 7.60677,4.40185 11.0229,6.30021 10.53691,5.77246 10.669,11.58589 0.14411,6.34277 0.354,6.09649 -10.73405,12.59511 -24.38554,14.29217 -23.74961,14.0004 -29.17341,13.38468 z m 6.21971,-1.29485 c 1.13118,-0.43274 3.58899,-1.72042 6.35,-3.32685 27.56966,-16.04076 26.59063,-15.33926 26.59063,-19.05269 v -1.48216 l -1.12448,0.9718 c -1.25331,1.08313 -6.4743,4.20433 -23.0849,13.80053 -8.69662,5.02418 -8.57186,4.97681 -13.09687,4.97318 -4.86287,-0.004 -2.598,1.13242 -32.01458,-16.06212 -1.96453,-1.1483 -3.95883,-2.46188 -4.43177,-2.91905 l -0.8599,-0.83123 0.006,1.57326 c 0.007,1.93815 0.65626,3.45795 1.87143,4.38176 1.66434,1.26528 27.44705,16.27627 29.98423,17.45716 2.5374,1.18099 7.4036,1.43714 9.8104,0.51641 z m -0.51861,-5.18472 c 1.8685,-0.48573 1.05872,-0.0406 17.70198,-9.73034 13.29463,-7.74016 14.67097,-8.63488 15.3739,-9.99419 0.90176,-1.74382 0.21305,-4.43452 -1.46873,-5.73807 -1.96008,-1.51926 -16.52034,-9.6089 -16.92719,-9.4047 -1.51837,0.7621 -5.03002,2.89849 -5.03148,3.06101 -9.6e-4,0.10737 1.18646,0.88128 2.6387,1.71979 l 2.64043,1.52456 0.005,3.35542 0.005,3.35542 -0.72761,0.51152 c -0.68528,0.48176 -5.94711,3.5719 -14.11935,8.29193 -1.98118,1.14428 -3.74154,2.0805 -3.91189,2.0805 -0.17036,0 -2.12126,-1.05323 -4.33534,-2.34051 -2.21408,-1.28728 -6.37709,-3.69793 -9.25113,-5.35701 l -5.22552,-3.01649 0.002,-3.44039 0.002,-3.44039 1.78417,-0.98316 c 0.98129,-0.54074 2.24224,-1.26513 2.80212,-1.60975 l 1.01794,-0.62659 -2.83742,-1.65519 -2.83743,-1.65519 -1.35552,0.73418 c -3.95914,2.14434 -14.9524,8.7141 -15.6005,9.32311 -1.94906,1.83153 -2.04331,4.55902 -0.22413,6.48583 0.75688,0.80165 0.86485,0.86697 14.07223,8.51236 4.72943,2.73773 9.96818,5.77629 11.64167,6.75235 6.52763,3.80722 9.50122,4.49657 14.16576,3.28399 z m -4.37618,-14.74179 v -2.71631 l -1.38906,-0.81817 c -0.76398,-0.45 -1.95893,-1.1465 -2.65543,-1.54779 l -1.26636,-0.72962 0.0757,2.73319 0.0757,2.73318 2.51354,1.51292 c 1.38245,0.8321 2.54331,1.52101 2.57969,1.53091 0.0364,0.01 0.0661,-1.20434 0.0661,-2.69831 z m 4.96094,0.50044 1.38906,-0.81818 v -2.73836 c 0,-1.50609 -0.0986,-2.69867 -0.21915,-2.65016 -0.12053,0.0485 -1.31115,0.73934 -2.64583,1.53519 l -2.42668,1.447 v 2.74533 2.74533 l 1.25677,-0.72399 c 0.69122,-0.39819 1.88185,-1.09217 2.64583,-1.54216 z m 7.37725,-4.52697 c 0.0651,-0.16957 0.0838,-1.40295 0.0416,-2.74084 l -0.0767,-2.43253 -2.57969,1.5136 -2.57969,1.51359 v 2.70543 2.70543 l 2.53807,-1.47818 c 1.39593,-0.813 2.5913,-1.61693 2.65637,-1.7865 z m -18.4236,0.4181 v -2.62058 l -1.52136,-0.85266 c -0.83674,-0.46897 -2.03169,-1.14902 -2.65543,-1.51123 l -1.13407,-0.65857 0.0757,2.71433 0.0757,2.71433 2.38125,1.39851 c 1.30969,0.76918 2.47055,1.40704 2.57969,1.41747 0.10914,0.0104 0.19844,-1.16029 0.19844,-2.6016 z m 9.30051,-1.40096 c 1.27807,-0.75664 2.28249,-1.41699 2.23204,-1.46744 -0.0504,-0.0504 -1.17748,-0.73331 -2.50451,-1.51748 l -2.41278,-1.42576 -2.40137,1.40417 c -1.32074,0.77229 -2.40308,1.49769 -2.40519,1.612 -0.005,0.2672 4.28663,2.73717 4.78852,2.75598 0.20874,0.008 1.42522,-0.60484 2.70329,-1.36147 z m -15.44282,-2.10124 -0.0754,-2.68319 -2.4566,-1.41785 c -1.35114,-0.77982 -2.51199,-1.41785 -2.57969,-1.41785 -0.0677,0 -0.12309,1.1677 -0.12309,2.59488 v 2.59489 l 2.4474,1.48476 c 1.34607,0.81662 2.54086,1.49439 2.65509,1.50615 0.11423,0.0118 0.17376,-1.18604 0.13229,-2.66179 z m 28.26186,1.13253 2.56115,-1.55065 -0.0545,-2.47947 c -0.03,-1.3637 -0.0922,-2.51712 -0.1382,-2.56315 -0.046,-0.046 -1.19911,0.56008 -2.56241,1.34693 l -2.47872,1.43062 -0.0754,2.68319 c -0.0415,1.47575 -0.0164,2.68319 0.0558,2.68319 0.0721,0 1.28369,-0.6978 2.69232,-1.55066 z M -82.805,135.59954 c 1.16112,-0.67263 2.21133,-1.31457 2.3338,-1.42652 0.12247,-0.11195 -0.9768,-0.8827 -2.44283,-1.71277 l -2.66549,-1.50922 -1.79051,0.99846 c -0.98478,0.54915 -2.1279,1.2023 -2.54028,1.45145 l -0.74977,0.45299 2.46956,1.47189 c 2.99877,1.78732 2.79094,1.77676 5.38552,0.27372 z m 12.41185,-0.16609 c 1.38294,-0.76398 2.51827,-1.44859 2.52294,-1.52135 0.0138,-0.2157 -4.99285,-2.96478 -5.22221,-2.86742 -1.21809,0.51706 -5.07799,2.97864 -4.91048,3.13156 0.47614,0.43465 4.46142,2.64628 4.76851,2.64628 0.17974,0 1.45829,-0.62508 2.84124,-1.38907 z m -17.00548,-4.40306 c 0.41156,-0.23407 0.74904,-0.48881 0.74996,-0.56609 0.003,-0.21106 -4.76509,-2.99135 -5.11725,-2.98419 -0.40431,0.008 -4.69068,2.63396 -4.70659,2.88314 -0.007,0.10675 1.09599,0.82558 2.45069,1.59741 l 2.46307,1.40332 1.70592,-0.954 c 0.93825,-0.5247 2.04264,-1.14551 2.4542,-1.37959 z m 24.77748,-0.0945 c 1.02093,-0.61263 1.13086,-0.48825 -2.14135,-2.42283 l -1.96605,-1.16236 -2.69939,1.53489 -2.69939,1.53489 2.58846,1.47117 2.58846,1.47117 1.72723,-0.95099 c 0.94997,-0.52305 2.12089,-1.18722 2.60203,-1.47594 z m -17.03936,0.85954 c 0.40932,-3.08558 0.12996,-3.66395 -2.5354,-5.24917 -2.79654,-1.66324 -2.67104,-1.71942 -2.81346,1.25947 l -0.11217,2.3462 2.47842,1.4741 c 3.00544,1.78756 2.76973,1.77417 2.98261,0.1694 z m 3.73137,-0.0965 2.37902,-1.41938 0.0757,-2.54937 c 0.0416,-1.40215 -0.008,-2.54937 -0.11058,-2.54937 -0.10247,0 -1.29738,0.62508 -2.65535,1.38906 l -2.46904,1.38907 -6e-5,2.57968 c -9e-5,3.03223 -0.21024,2.94452 2.78028,1.16031 z m -9.9241,-4.60968 v -2.58948 l -1.65365,-0.95169 c -0.9095,-0.52343 -2.10013,-1.21539 -2.64583,-1.5377 l -0.99219,-0.586 v 2.60979 2.60979 l 2.4474,1.48881 c 1.34606,0.81885 2.53669,1.50167 2.64583,1.51739 0.10914,0.0157 0.19844,-1.1367 0.19844,-2.56091 z m 16.09549,1.02348 2.42534,-1.43371 v -2.62633 -2.62633 l -1.25677,0.72399 c -0.69123,0.3982 -1.88185,1.09217 -2.64584,1.54217 l -1.38906,0.81817 v 2.60607 c 0,1.43333 0.0992,2.56638 0.22049,2.51787 0.12127,-0.0485 1.3119,-0.73336 2.64584,-1.5219 z m -4.45969,-3.76247 c 0.003,-0.093 -1.11837,-0.84928 -2.49243,-1.68061 l -2.49829,-1.51153 -2.19807,1.34352 c -1.20893,0.73893 -2.35967,1.45061 -2.55721,1.5815 -0.26093,0.1729 0.3403,0.63553 2.19838,1.69158 l 2.55753,1.4536 2.49211,-1.35448 c 1.37066,-0.74497 2.49475,-1.43058 2.49798,-1.52358 z m -17.77778,-0.91896 -0.0757,-2.54325 -2.46739,-1.4255 c -1.35706,-0.78402 -2.51792,-1.42549 -2.57969,-1.42549 -0.29605,0 -0.0882,4.98226 0.21843,5.23675 0.48322,0.40101 4.52767,2.68307 4.77208,2.69262 0.11441,0.004 0.17395,-1.13634 0.1323,-2.53513 z m 28.27905,1.1542 2.46904,-1.38906 7e-5,-2.57969 c 3e-5,-1.41883 -0.0553,-2.57969 -0.12302,-2.57969 -0.0677,0 -1.22856,0.63856 -2.57969,1.41902 l -2.4566,1.41902 -0.0411,2.54973 c -0.0226,1.40235 0.0272,2.54973 0.11058,2.54973 0.0834,0 1.2627,-0.62508 2.62067,-1.38906 z m -18.76494,-2.35427 c 1.22537,-0.74016 2.12879,-1.43873 2.0076,-1.55236 -0.50363,-0.47222 -5.00393,-2.91367 -5.24744,-2.84678 -0.63817,0.1753 -4.62478,2.73481 -4.56041,2.9279 0.13569,0.40707 4.82631,3.05746 5.19864,2.93743 0.20551,-0.0662 1.37623,-0.72603 2.60161,-1.46619 z m 11.55357,0.38757 c 1.17696,-0.6815 2.35323,-1.38079 2.61395,-1.55398 0.44754,-0.29728 -3.70365,-3.29234 -4.56324,-3.29234 -0.3994,0 -5.34044,2.96166 -5.19076,3.11134 0.18238,0.18238 4.75179,2.95165 4.89109,2.96423 0.06,0.005 1.072,-0.54775 2.24896,-1.22925 z m -18.08126,-3.84266 c 1.29899,-0.75768 2.36178,-1.44229 2.36174,-1.52136 -8e-5,-0.1606 -4.83578,-2.92189 -5.11696,-2.92189 -0.0983,0 -1.26695,0.61869 -2.59691,1.37486 -2.77178,1.57596 -2.83651,1.25285 0.66277,3.30816 2.33448,1.37116 1.88838,1.39397 4.68936,-0.23977 z m 9.39432,-3.5172 c -0.11503,-0.45065 -4.66547,-3.3073 -5.26829,-3.3073 -0.0972,0 -0.17672,1.12771 -0.17672,2.50601 v 2.506 l 2.71198,1.60434 2.71197,1.60434 0.0781,-2.19211 c 0.0429,-1.20567 0.0173,-2.43024 -0.057,-2.72128 z m 15.37139,3.40537 2.53073,-1.48942 -2.21471,-1.291 c -1.21809,-0.71005 -2.40077,-1.35045 -2.62817,-1.4231 -0.38285,-0.12231 -5.27509,2.45824 -5.27509,2.7825 0,0.18424 4.52305,2.91044 4.82873,2.91044 0.12527,0 1.3666,-0.67024 2.75851,-1.48942 z m -11.68828,-0.19109 2.38125,-1.39036 0.0754,-2.69857 0.0754,-2.69858 -2.32437,1.36099 c -1.2784,0.74855 -2.47319,1.47781 -2.65509,1.62058 -0.36232,0.28436 -0.48797,5.23199 -0.1323,5.20908 0.10914,-0.007 1.27,-0.63844 2.57969,-1.40314 z m -9.92187,-4.61156 v -2.5879 l -2.4474,-1.42775 c -1.34607,-0.78526 -2.53669,-1.4732 -2.64583,-1.52876 -0.10914,-0.0555 -0.19844,1.08944 -0.19844,2.54442 v 2.64543 l 2.4474,1.45883 c 1.34606,0.80236 2.53669,1.46442 2.64583,1.47123 0.10914,0.007 0.19844,-1.15215 0.19844,-2.5755 z m 15.99238,1.10759 2.52845,-1.48031 v -2.63004 -2.63004 l -0.59531,0.31189 c -0.32743,0.17154 -1.51805,0.84099 -2.64584,1.48767 l -2.05052,1.17579 v 2.62267 c 0,1.44248 0.0528,2.62268 0.11738,2.62268 0.0646,0 1.25519,-0.66614 2.64584,-1.48031 z m -6.81017,-2.3812 c 1.38335,-0.81414 2.41334,-1.57861 2.28888,-1.69881 -0.12447,-0.1202 -1.2681,-0.81788 -2.54141,-1.5504 l -2.3151,-1.33184 -2.3151,1.33184 c -1.27331,0.73252 -2.41485,1.4281 -2.53676,1.54575 -0.16608,0.16027 4.29802,3.10235 4.81194,3.17132 0.0508,0.007 1.2242,-0.65372 2.60755,-1.46786 z m -15.26763,-2.18848 v -2.6104 l -2.51114,-1.49064 c -1.38113,-0.81985 -2.57175,-1.49063 -2.64583,-1.49063 -0.0741,0 -0.1347,1.17959 -0.1347,2.62132 v 2.62133 l 2.4474,1.45895 c 1.34607,0.80242 2.53669,1.46829 2.64583,1.47971 0.10914,0.0114 0.19844,-1.15391 0.19844,-2.58964 z m 30.69167,-2.98944 c 0,-1.4484 -0.0893,-2.58547 -0.19844,-2.52681 -0.10914,0.0587 -1.29977,0.73533 -2.64584,1.50371 l -2.44739,1.39705 0.004,2.01764 c 0.006,3.43578 -0.093,3.3758 2.79692,1.69273 l 2.49114,-1.45085 z m -21.48632,1.67595 c 2.84298,-1.64245 2.85813,-1.43502 -0.2352,-3.22029 -2.31891,-1.33832 -2.45103,-1.38073 -3.11618,-1.0004 -0.38203,0.21845 -1.57335,0.90452 -2.64738,1.52461 l -1.95279,1.12744 1.42362,0.80139 c 0.78299,0.44076 1.9594,1.13201 2.61425,1.5361 0.65484,0.40409 1.25403,0.71374 1.33154,0.68811 0.0775,-0.0256 1.23946,-0.68126 2.58214,-1.45696 z m 12.35055,-0.10898 c 2.91873,-1.60429 2.96687,-1.38431 -0.73012,-3.33665 l -2.18111,-1.15182 -2.57894,1.52289 -2.57894,1.5229 2.45087,1.40691 c 2.98764,1.71503 2.56795,1.71236 5.61824,0.0358 z m -18.52321,-3.4416 c 1.38298,-0.76399 2.51654,-1.45555 2.51903,-1.53682 0.002,-0.0813 -1.17008,-0.8272 -2.60572,-1.65764 l -2.61025,-1.50989 -2.48298,1.46723 c -1.36564,0.80698 -2.46642,1.54551 -2.44618,1.64118 0.0411,0.1944 4.61564,2.96236 4.91865,2.97619 0.10612,0.005 1.32447,-0.61627 2.70745,-1.38025 z m 12.19968,0 c 1.36574,-0.76399 2.48576,-1.47122 2.48893,-1.57162 0.003,-0.10041 -1.15196,-0.83368 -2.56699,-1.62949 -2.53755,-1.42713 -2.58191,-1.44064 -3.24114,-0.9874 -0.36761,0.25274 -1.47205,0.90254 -2.45432,1.444 -2.21402,1.22045 -2.24101,1.08242 0.53242,2.72294 2.83311,1.67582 2.28789,1.67358 5.2411,0.0216 z m 12.29071,0.0339 c 3.01406,-1.71371 2.97929,-1.5993 0.85965,-2.8287 -3.60567,-2.0913 -3.03724,-2.05475 -5.98097,-0.3846 -2.95369,1.67579 -2.96235,1.4966 0.15896,3.28925 2.6619,1.5288 2.12549,1.53701 4.96236,-0.0759 z m -18.49306,-3.5037 c 1.35048,-0.78061 2.48774,-1.52475 2.52725,-1.65365 0.0395,-0.12889 -1.07324,-0.875167 -2.47277,-1.658397 -2.4296,-1.35969 -2.57579,-1.40621 -3.23486,-1.02943 -0.37965,0.21704 -1.5681,0.90143 -2.64101,1.52086 l -1.95074,1.126237 2.08304,1.19013 c 1.14566,0.65458 2.32115,1.34891 2.61219,1.54297 0.29105,0.19405 0.54994,0.35907 0.57533,0.3667 0.0254,0.008 1.15109,-0.62481 2.50157,-1.40542 z m 12.58391,-0.20982 c 1.35473,-0.7505 2.46055,-1.43511 2.45737,-1.52136 -0.003,-0.0862 -1.14368,-0.793457 -2.53445,-1.571587 l -2.52868,-1.41478 -1.63273,0.86433 c -2.61463,1.38413 -3.69511,2.125667 -3.44907,2.367097 0.45828,0.44971 4.47268,2.63695 4.84329,2.63887 0.20962,10e-4 1.48954,-0.61208 2.84427,-1.36257 z m -6.34634,-3.412987 c 1.27996,-0.73586 2.41333,-1.42325 2.51859,-1.52753 0.22198,-0.2199 -4.48761,-2.9562 -5.08372,-2.95367 -0.21964,9.3e-4 -1.50746,0.64077 -2.86184,1.42187 l -2.4625,1.42018 2.4625,1.46778 c 3.01367,1.796307 2.62208,1.783937 5.42697,0.17137 z M -198.76418,49.237196 c -0.32742,-0.131607 -0.59531,-0.434455 -0.59531,-0.672995 0,-0.312102 0.12983,-0.378186 0.46302,-0.235689 1.10333,0.471859 1.87065,0.435345 2.42121,-0.115218 0.78055,-0.780547 0.76155,-1.478074 -0.0287,-1.055126 -2.51886,1.348049 -4.66158,-2.192059 -2.58418,-4.269457 0.59252,-0.592526 2.33772,-0.717985 2.85077,-0.204936 0.24694,0.246944 0.3175,0.246944 0.3175,0 0,-0.174625 0.17859,-0.3175 0.39687,-0.3175 0.77727,0 0.55616,5.685601 -0.25256,6.494318 -0.6846,0.684607 -1.85529,0.832131 -2.98859,0.376603 z m 2.31511,-2.902172 c 1.09433,-1.094326 0.48095,-3.241145 -0.92604,-3.241145 -0.95082,0 -1.45521,0.677207 -1.45521,1.953796 0,1.582646 1.35397,2.314629 2.38125,1.287349 z m 118.26874,2.677683 c 0,-0.149343 0.12355,-0.545027 0.27456,-0.879296 0.22322,-0.49411 0.0797,-1.092966 -0.76772,-3.20244 -0.99112,-2.467321 -1.01458,-2.590696 -0.47791,-2.513542 0.43022,0.06185 0.72093,0.505667 1.223,1.867075 0.80687,2.187915 0.78748,2.187901 1.60091,0.0012 0.61286,-1.647539 1.96343,-2.97001 1.5146,-1.4831 -0.96938,3.211469 -3.36744,7.63387 -3.36744,6.210099 z m -126.11246,-1.53787 c -1.02851,-0.201181 -1.54899,-1.073144 -1.54899,-2.595021 0,-2.151144 1.39793,-3.222334 3.10886,-2.382212 l 0.7276,0.35728 v -1.170347 c 0,-0.863918 0.10391,-1.170346 0.39687,-1.170346 0.32673,0 0.39752,0.479326 0.40049,2.711979 0.002,1.491589 0.075,2.978423 0.16231,3.304077 0.16578,0.618528 -0.6939,1.263542 -0.892,0.669258 -0.0658,-0.197352 -0.32263,-0.171001 -0.80961,0.08306 -0.3923,0.204663 -0.7728,0.356634 -0.84556,0.337714 -0.0728,-0.01892 -0.38775,-0.08437 -0.69997,-0.145443 z m 1.69943,-1.022524 c 1.26186,-0.883841 0.53188,-3.556872 -0.97135,-3.556872 -1.33824,0 -1.92642,2.741972 -0.76299,3.556872 0.32342,0.226533 0.71365,0.411878 0.86717,0.411878 0.15352,0 0.54375,-0.185345 0.86717,-0.411878 z m -37.24737,-2.498538 c 0,-2.881019 0.0644,-3.439584 0.39687,-3.439584 0.30868,0 0.39687,0.352778 0.39687,1.5875 0,0.873125 0.11089,1.5875 0.24642,1.5875 0.13553,0 0.86776,-0.714375 1.62718,-1.5875 0.75942,-0.873125 1.60103,-1.5875 1.87025,-1.5875 0.73975,0 0.61269,0.25548 -0.87741,1.764326 l -1.3669,1.384091 1.49919,1.707599 c 1.64222,1.870506 1.71834,2.019677 1.03617,2.03049 -0.25466,0.004 -1.0757,-0.675676 -1.82453,-1.510471 -1.60459,-1.788787 -2.21037,-1.694262 -2.21037,0.344904 0,0.853147 -0.10453,1.158228 -0.39687,1.158228 -0.33243,0 -0.39687,-0.558565 -0.39687,-3.439583 z m 6.2618,3.263194 c -0.29074,-0.290741 -0.20102,-4.539657 0.0998,-4.725566 0.1519,-0.09388 0.43895,-0.03559 0.6379,0.129525 0.24867,0.206373 0.41533,0.213493 0.5332,0.02278 0.29129,-0.471329 2.13094,-0.325987 2.61276,0.206423 0.60681,0.670519 0.64177,4.543229 0.041,4.543229 -0.31207,0 -0.39687,-0.367477 -0.39687,-1.719792 0,-2.34802 -0.78882,-3.255074 -2.0578,-2.366247 -0.51165,0.358377 -0.58804,0.650508 -0.58804,2.248958 0,1.755883 -0.27289,2.269741 -0.88194,1.660692 z m 6.19281,-0.520751 c -1.85217,-2.354654 0.73945,-5.500151 3.3712,-4.091683 1.20003,0.642238 1.38339,3.190035 0.30704,4.266386 -0.83357,0.833564 -2.96476,0.73234 -3.67824,-0.174703 z m 3.08966,-0.425972 c 0.1819,-0.145529 0.33072,-0.703514 0.33072,-1.239965 0,-1.822804 -1.36885,-2.642127 -2.50913,-1.501839 -1.66397,1.663966 0.35282,4.202353 2.17841,2.741804 z m 2.85277,-1.073354 c -0.77535,-2.541968 -0.80511,-2.830617 -0.29186,-2.830617 0.23429,0 0.54085,0.578629 0.80601,1.521354 0.68171,2.423671 0.69879,2.429733 1.30517,0.463021 0.76779,-2.490236 1.35984,-2.545897 2.11073,-0.198438 0.66139,2.067659 0.78706,2.061561 1.363,-0.06615 0.35997,-1.329836 0.57661,-1.719791 0.95542,-1.719791 0.60495,0 0.63483,-0.252125 -0.30066,2.537414 -0.43481,1.296557 -0.792,2.387143 -0.79375,2.423523 -0.002,0.03638 -0.23789,0.06615 -0.52474,0.06615 -0.41741,0 -0.63773,-0.382478 -1.10336,-1.915459 l -0.5818,-1.915459 -0.63848,1.915459 c -0.90333,2.709969 -1.4123,2.647938 -2.30568,-0.281007 z m 7.7967,-1.243117 c 0,-2.881019 0.0644,-3.439584 0.39688,-3.439584 0.33242,0 0.39687,0.558565 0.39687,3.439584 0,2.881018 -0.0644,3.439583 -0.39687,3.439583 -0.33243,0 -0.39688,-0.558565 -0.39688,-3.439583 z m 2.7661,2.790151 c -0.90074,-0.900738 -0.90852,-2.724019 -0.0161,-3.761571 1.31248,-1.525852 3.75988,-0.754486 3.9216,1.236003 l 0.0752,0.926042 -1.92131,0.0778 c -1.83049,0.07412 -1.90789,0.102856 -1.63755,0.607977 0.41024,0.766558 1.39503,1.069043 2.37184,0.728528 0.98151,-0.342158 1.3889,-0.06406 0.67301,0.459411 -0.85719,0.62679 -2.71253,0.480049 -3.46677,-0.274189 z m 3.05474,-2.57088 c 0,-1.115456 -1.53255,-1.597142 -2.38125,-0.748438 -0.83348,0.833475 -0.63673,1.058333 0.92604,1.058333 0.9356,0 1.45521,-0.110653 1.45521,-0.309895 z m 14.57128,2.523172 c -0.81171,-1.031919 -0.75904,-2.98145 0.1024,-3.790736 1.44136,-1.354087 3.8467,-0.533178 3.93656,1.343495 l 0.0429,0.895423 -1.9213,0.0778 c -1.80666,0.07316 -1.90497,0.108316 -1.64758,0.589248 0.46183,0.862938 1.22703,1.124441 2.27665,0.778034 1.05227,-0.347282 1.39488,-0.194891 0.90066,0.400608 -0.60872,0.733459 -3.0341,0.540316 -3.69027,-0.293871 z m 3.1558,-2.591253 c 0,-1.42148 -1.89834,-1.579222 -2.61553,-0.217336 -0.30724,0.583419 -0.28425,0.595312 1.15101,0.595312 1.09286,0 1.46452,-0.09592 1.46452,-0.377976 z m 89.69169,2.957664 c -0.004,-0.682828 2.49653,-6.34391 2.86483,-6.485241 0.21128,-0.08108 0.56502,-0.03332 0.78609,0.106128 0.39402,0.24854 2.70113,5.684407 2.70113,6.364227 0,0.668244 -0.84311,0.336619 -1.13932,-0.448135 -0.29097,-0.770857 -0.34968,-0.79375 -2.03568,-0.79375 -1.68599,0 -1.74471,0.02289 -2.03567,0.79375 -0.29293,0.776041 -1.13731,1.118583 -1.14138,0.463021 z m 4.38689,-2.513542 c -0.0818,-0.254661 -0.37722,-1.058333 -0.65648,-1.785937 l -0.50774,-1.322917 -0.51367,1.190625 c -1.0524,2.439369 -1.06382,2.38125 0.46805,2.38125 1.17416,0 1.33839,-0.06285 1.20984,-0.463021 z m 3.0235,0.35013 c 0,-2.075115 0.0717,-2.532942 0.39687,-2.532942 0.21828,0 0.39688,0.133641 0.39688,0.29698 0,0.207813 0.11683,0.200017 0.38913,-0.02597 0.69684,-0.578331 2.2673,-0.447956 2.81957,0.234073 0.71017,0.877018 0.73722,4.606766 0.0324,4.472759 -0.37626,-0.07154 -0.48781,-0.454628 -0.59531,-2.044515 -0.1444,-2.135585 -0.55698,-2.615385 -1.7751,-2.064334 -0.51098,0.231153 -0.59416,0.500569 -0.66146,2.142295 -0.0632,1.541567 -0.15991,1.893713 -0.54,1.966241 -0.41488,0.07917 -0.46302,-0.174995 -0.46302,-2.444589 z m 6.15019,2.163412 c -1.11573,-1.394592 -0.29538,-2.636368 1.73128,-2.620669 1.49343,0.01157 1.66877,-0.198354 0.84978,-1.017352 -0.60777,-0.607769 -0.75907,-0.629849 -1.74566,-0.254751 -0.84733,0.322157 -1.38108,-0.03009 -0.78952,-0.521045 0.62487,-0.518598 2.70801,-0.447582 3.32795,0.113454 0.69318,0.627322 0.8084,4.631092 0.13327,4.631092 -0.21828,0 -0.39688,-0.123252 -0.39688,-0.273893 0,-0.188801 -0.15899,-0.188801 -0.51177,0 -0.70664,0.378185 -2.27791,0.343816 -2.59845,-0.05684 z m 2.16696,-0.456473 c 1.27295,-0.483976 0.93972,-1.643399 -0.44352,-1.543115 -1.26504,0.09172 -1.69213,0.830116 -0.84038,1.452933 0.568,0.415328 0.45042,0.407069 1.2839,0.09018 z m 3.23632,0.610813 c -0.2205,-0.220494 -0.2343,-5.714838 -0.0158,-6.284263 0.0883,-0.230183 0.32645,-0.418515 0.52917,-0.418515 0.29613,0 0.36856,0.675976 0.36856,3.439584 0,3.357575 -0.16756,3.977572 -0.88194,3.263194 z m 8.56439,-0.07671 c -0.26127,-0.165247 -0.4217,-0.852905 -0.49288,-2.112615 -0.0772,-1.365475 -0.20421,-1.867621 -0.47255,-1.867621 -0.20186,0 -0.36702,-0.178594 -0.36702,-0.396875 0,-0.218282 0.17032,-0.396875 0.37848,-0.396875 0.20816,0 0.41651,-0.266675 0.46302,-0.59261 0.12546,-0.879408 1.01059,-0.956701 1.01059,-0.08825 0,0.580121 0.11744,0.680859 0.79375,0.680859 0.52916,0 0.79375,0.132291 0.79375,0.396875 0,0.264583 -0.26459,0.396875 -0.79375,0.396875 h -0.79375 v 1.719791 1.719792 h 0.79375 c 0.52916,0 0.79375,0.132291 0.79375,0.396875 0,0.452187 -1.46183,0.551933 -2.10714,0.143778 z m 3.16547,-2.241044 c 0,-2.372103 0.0342,-2.532942 0.53909,-2.532942 0.76512,0 0.69129,4.830529 -0.0761,4.977314 -0.4149,0.07936 -0.46302,-0.174695 -0.46302,-2.444372 z m 2.80164,1.680091 c -1.00825,-1.19824 -0.84955,-2.952571 0.35043,-3.87389 0.61265,-0.470373 2.79591,-0.426667 3.20324,0.06413 0.47375,0.570845 0.11847,0.796403 -0.68081,0.432224 -1.3663,-0.622525 -2.50394,0.164704 -2.49545,1.7268 0.008,1.382689 1.26065,2.191905 2.51166,1.621911 0.78529,-0.357803 1.13462,-0.126732 0.6646,0.43961 -0.64332,0.775148 -2.76183,0.530261 -3.55367,-0.410781 z m 4.93742,0.638821 c -1.04781,-0.422802 -0.22691,-1.031725 0.84267,-0.62507 0.805,0.306061 2.10186,-0.08956 1.93495,-0.590281 -0.0603,-0.180946 -0.69313,-0.545627 -1.40625,-0.810404 -2.06943,-0.768364 -2.40326,-2.030972 -0.72263,-2.733182 1.00366,-0.419357 2.98928,-0.137171 2.98928,0.424822 0,0.372544 -0.6206,0.490148 -1.14912,0.21776 -0.26822,-0.13823 -0.78214,-0.177419 -1.14206,-0.08709 -0.97674,0.245146 -0.67449,1.007563 0.55976,1.411953 1.76169,0.577205 2.28151,1.585084 1.31565,2.550943 -0.40095,0.400949 -2.44632,0.553639 -3.22225,0.240545 z m -7.55716,-5.816481 c -0.37452,-0.374522 -0.1626,-0.887457 0.36667,-0.887457 0.36987,0 0.5207,0.143683 0.46302,0.441096 -0.0944,0.48696 -0.5461,0.729947 -0.82969,0.446361 z m -148.34856,-9.474824 c -2.55867,-0.54175 -3.08847,-0.822223 -18.06171,-9.561776 -18.28972,-10.675304 -16.99623,-9.467048 -16.96795,-15.8498112 0.0256,-5.7889946 -0.0755,-5.663781 8.5451,-10.5833329 l 5.56356,-3.1749998 0.0756,-13.6260411 0.0756,-13.626041 3.10679,0.03364 3.10678,0.03364 -0.15937,-1.091978 c -0.0876,-0.600587 -0.25188,-1.535027 -0.36496,-2.076532 -0.3011,-1.441905 0.0663,-1.586897 2.24826,-0.887288 6.4544,2.069478 12.46686,7.443496 15.10633,13.502234 0.87677,2.012567 0.98046,2.06808 1.38011,0.738879 1.67804,-5.580978 10.25216,-13.200265 16.40562,-14.578641 1.41729,-0.317471 1.55725,-0.07167 1.14061,2.002975 -0.49991,2.489236 -0.44769,2.716949 0.56161,2.448983 0.86145,-0.228711 2.75572,-0.355506 4.36324,-0.292058 l 0.85752,0.03385 0.0685,13.654676 0.0685,13.6546753 5.29167,3.0445269 c 8.88693,5.1130397 8.8644,5.0862599 8.86206,10.5416336 -0.003,6.7842542 2.50583,4.7359202 -26.72144,21.8173572 -6.70584,3.919127 -10.03475,4.797885 -14.55208,3.841424 z m 5.55625,-0.684917 c 2.76757,-0.43845 4.76394,-1.521196 26.72291,-14.493371 7.48527,-4.421892 8.20209,-5.13854 8.20209,-8.2001682 0,-1.485769 -0.16938,-1.654528 -0.85588,-0.852754 -0.57179,0.667801 -2.30167,1.779689 -7.21391,4.6367712 -2.18282,1.269577 -8.06775,4.693295 -13.07764,7.608263 -10.77798,6.271088 -11.20082,6.476167 -14.13329,6.85471 -3.16376,0.408402 -5.74158,0.003 -8.50782,-1.338091 -3.45303,-1.674015 -28.47811,-16.2893362 -29.69948,-17.3452982 l -1.12448,-0.972194 0.001,1.672106 c 0.002,2.7676582 0.78413,3.6919192 5.42261,6.4100242 29.63321,17.364807 28.65674,16.908253 34.26354,16.020002 z m 2.13099,-5.750473 c 0.79248,-0.281465 3.28635,-1.579677 5.54193,-2.884915 11.15434,-6.454714 24.81125,-14.4952282 25.39999,-14.9542612 2.37132,-1.848881 2.45234,-5.475403 0.16121,-7.2157406 -0.98877,-0.7510637 -11.29163,-6.7535715 -11.59201,-6.7535715 -0.11597,0 -0.21086,1.1340249 -0.21086,2.5200553 v 2.5200552 l -1.12448,0.6708357 c -0.61846,0.3689596 -5.98412,3.5165149 -11.92369,6.9945679 l -10.7992,6.3237322 -10.36746,-5.9844322 c -5.7021,-3.291437 -11.08184,-6.4146982 -11.95496,-6.9405796 l -1.5875,-0.956148 -0.0757,-2.5740432 c -0.0417,-1.4157238 -0.11924,-2.5740433 -0.17242,-2.5740433 -0.16271,0 -8.83128,5.0025031 -10.33102,5.9618791 -2.47999,1.5864269 -3.41317,3.41387 -2.79569,5.474811 0.62416,2.083258 1.36194,2.599319 14.56548,10.1881632 2.54662,1.463688 7.33926,4.226978 10.65031,6.140645 6.1057,3.528863 7.32483,4.111751 9.45802,4.522038 1.81911,0.349878 5.52188,0.102072 7.15807,-0.479048 z m -5.15224,-45.472928 c -0.17882,-0.467678 -20.51874,-12.564389 -22.23126,-13.221547 -0.37022,-0.142065 -0.41207,1.453183 -0.41207,15.705303 v 15.8634299 l 5.88698,3.3978319 c 3.23784,1.868808 8.32776,4.805767 11.31093,6.526577 l 5.42396,3.1287442 0.0687,-15.5486785 c 0.0378,-8.5517735 0.0165,-15.6850205 -0.0472,-15.8516605 z m 3.29224,30.250787 c 1.08788,-0.6274052 5.31172,-3.0868702 9.3863,-5.4654792 4.07458,-2.378608 8.21201,-4.7926003 9.19427,-5.3644271 l 1.78594,-1.039685 V -17.452428 c 0,-8.718669 -0.057,-15.852127 -0.12655,-15.852127 -0.20439,0 -11.73215,6.683861 -17.33595,10.051485 l -5.15937,3.100545 -0.0682,15.7812756 c -0.0375,8.6797012 0.0249,15.7812754 0.13869,15.7812754 0.11381,0 1.09702,-0.513331 2.1849,-1.140735 z m -6.11603,-34.238211 c -5.49446,-5.757851 -11.49351,-9.169923 -17.57058,-9.993609 -1.80287,-0.244361 -1.73518,-0.19558 5.42395,3.908461 3.41974,1.960398 7.82506,4.525611 9.78959,5.700473 4.35129,2.602235 4.49564,2.625793 2.35704,0.384675 z m 1.89455,-0.729363 c -2.75092,-5.954355 -7.83234,-10.594687 -14.24487,-13.008355 l -1.71924,-0.647122 0.18392,1.664707 c 0.30292,2.741826 0.29206,2.724593 2.22299,3.52941 4.30822,1.795677 7.71815,4.180804 11.67348,8.165183 1.52062,1.53178 2.80613,2.743682 2.85669,2.693116 0.0506,-0.05056 -0.38727,-1.129188 -0.97297,-2.396939 z m 9.63903,-4.588344 c 1.01865,-0.759529 3.3999,-2.158754 5.29167,-3.109389 l 3.43958,-1.728426 0.31442,-1.640577 c 0.51968,-2.711674 0.56886,-2.614462 -1.04202,-2.060034 -6.31818,2.174568 -12.03635,7.35566 -14.76856,13.381419 -1.19904,2.644429 -0.98423,2.587934 2.06856,-0.544008 1.56435,-1.604913 3.67771,-3.539456 4.69635,-4.298985 z m 1.84791,2.514024 c 3.4948,-2.031363 7.69363,-4.4688 9.33074,-5.416526 3.47545,-2.011946 3.48001,-2.01806 1.32291,-1.774148 -5.61427,0.634831 -14.41367,6.025274 -17.92415,10.980189 l -0.65416,0.923324 0.78525,-0.509725 c 0.43188,-0.280349 3.64461,-2.17175 7.13941,-4.203114 z M -81.51746,32.0578 c -3.14378,-0.483889 -2.50511,-0.152023 -20.31597,-10.556556 -16.62498,-9.71178 -15.50795,-8.629269 -15.50088,-15.0218152 0.007,-5.913569 -0.25067,-5.6168944 9.92016,-11.4419845 l 6.34737,-3.6352963 0.0716,-5.173548 c 0.0626,-4.521586 0.12928,-5.222595 0.52917,-5.562757 0.52279,-0.444709 8.1154,-4.709981 8.38424,-4.709981 0.24169,0 7.55766,4.377484 11.1023,6.643026 3.37203,2.155213 3.32413,2.165332 4.09947,-0.866207 0.80647,-3.153278 1.07903,-7.327061 1.08001,-16.538678 l 9e-4,-8.5129 3.76529,-2.18263 c 5.42726,-3.146037 4.44037,-3.119702 9.42688,-0.251555 l 4.27033,2.456218 v 17.04121 17.0412086 l 1.12448,0.667733 c 0.61846,0.3672531 3.84571,2.2495646 7.17165,4.1829145 9.15204,5.3200217 8.90486,5.0198727 8.89598,10.8023467 -0.008,5.3337692 -0.59033,6.3647572 -5.05304,8.9491792 -1.07394,0.621934 -5.22683,3.057133 -9.22865,5.411554 -16.83575,9.905097 -17.33836,10.182449 -19.59047,10.810471 -1.84277,0.513875 -4.76476,0.715262 -6.50083,0.448047 z m 6.10858,-1.118023 c 1.87069,-0.475993 7.25485,-3.500371 25.14209,-14.122774 7.89695,-4.689628 8.33596,-5.137821 8.33306,-8.5073332 l -0.001,-1.529852 -0.594,0.69195 c -0.92462,1.07709 -25.97318,15.9698222 -30.49191,18.1291002 -3.35522,1.603293 -7.98872,1.748955 -11.50802,0.361776 -2.54246,-1.002145 -29.9799,-17.0344762 -31.14623,-18.1994582 l -0.86971,-0.868715 0.004,1.662465 c 0.009,3.5221682 -0.39745,3.2024472 16.89495,13.2825972 17.38296,10.132939 18.51204,10.556877 24.23673,9.100244 z m 0.69273,-5.467213 c 1.56369,-0.540701 4.27098,-2.062579 19.81915,-11.141131 12.83282,-7.4930592 13.07237,-7.6858792 13.03,-10.4881752 -0.04,-2.6466976 -0.93588,-3.321187 -15.1915,-11.4374078 l -1.50005,-0.8540307 -8.68641,5.0680324 C -81.13387,4.7232518 -86.60208,7.9382678 -89.3616,9.6232558 c -1.55187,0.9475842 -2.74754,1.5133832 -2.99636,1.4179002 -0.79165,-0.303785 -8.18088,-4.7423132 -8.37404,-5.0300832 -0.10692,-0.159273 -0.19621,-3.308654 -0.19844,-6.9986243 -0.004,-6.2215677 -0.0369,-6.6964146 -0.45674,-6.5353238 -0.83225,0.3193635 -11.8362,6.7848862 -13.06422,7.6760601 -2.87844,2.088886 -2.81918,5.663121 0.12873,7.763547 1.92386,1.370778 27.51309,16.1639082 29.69652,17.1675502 2.6387,1.212919 7.02784,1.384889 9.91,0.388282 z M -75.66679,0.6351316 c 3.4925,-2.0423769 8.61219,-5.0270567 11.37709,-6.6326218 l 5.02708,-2.9192092 0.0681,-16.6918436 c 0.0375,-9.180515 -5.5e-4,-16.691845 -0.0845,-16.691845 -0.0839,0 -1.81122,0.961461 -3.83844,2.136579 l -3.68583,2.136579 -10e-4,2.1629 c -0.003,5.753495 -1.05901,19.083438 -1.76352,22.271232 -1.49809,6.7786135 -6.59026,7.4540946 -8.41922,1.116818 -0.88581,-3.069301 -1.83753,-2.953887 -3.85447,0.467432 -1.98379,3.3650797 -3.16197,2.2741661 -3.56837,-3.304041 -0.0901,-1.236927 -0.2086,-2.394623 -0.26331,-2.572658 -0.0627,-0.204035 -1.362,0.420497 -3.51472,1.689402 l -3.41527,2.013102 -0.15613,3.602264 c -0.21222,4.8962335 -0.2316,18.1527158 -0.0285,19.5069658 l 0.16442,1.0964432 4.80344,-2.8370432 c 2.64189,-1.560373 7.66093,-4.508078 11.15343,-6.5504552 z M -92.73241,-2.1595782 V -14.141683 l -3.56623,-2.040811 c -1.96143,-1.122446 -3.62831,-2.040812 -3.70417,-2.040812 -0.0759,0 -0.13793,5.355068 -0.13793,11.9001503 V 5.5769938 l 0.7105,0.469121 c 1.16635,0.770111 6.28508,3.724731 6.49939,3.751565 0.10914,0.01366 0.19844,-5.367101 0.19844,-11.957258 z m 21.37574,-7.4586631 c 2.10607,-1.7721387 3.11656,-8.3638807 3.64591,-23.7832427 l 0.16471,-4.797862 -3.6635,-2.029685 -3.66349,-2.029685 -0.17042,9.834893 c -0.17898,10.328197 -0.42734,12.860682 -1.55743,15.881131 -0.49544,1.324163 -0.50665,1.510825 -0.1398,2.326914 0.21936,0.487995 0.52737,1.400027 0.68446,2.026738 0.67829,2.7059642 3.01791,3.9858103 4.69956,2.5707987 z m -10.54816,-2.2151997 c 0.28577,-0.560157 0.95118,-1.583888 1.47868,-2.274957 0.52751,-0.691069 0.91986,-1.295733 0.87189,-1.343698 -0.048,-0.04797 -1.0086,-0.688705 -2.13476,-1.423867 l -2.04756,-1.336659 v 1.166138 c 0,2.471619 0.72076,6.231511 1.19456,6.231511 0.0647,0 0.35142,-0.45831 0.63719,-1.018468 z m -6.64238,-5.066948 c 1.91191,-1.091406 3.47699,-2.043906 3.47795,-2.116666 0.003,-0.197664 -6.65748,-4.056945 -7.00121,-4.056945 -0.45077,0 -7.2699,3.897027 -7.20284,4.116311 0.0743,0.24281 6.88344,4.178059 7.09384,4.099757 0.0858,-0.03195 1.72035,-0.951051 3.63226,-2.042457 z m 25.31229,-24.116988 c 1.82096,-1.068862 3.31084,-2.006081 3.31084,-2.082711 0,-0.114745 -1.68874,-1.14634 -6.65072,-4.062692 -0.40981,-0.240863 -3.32444,1.218647 -6.9372,3.473822 l -1.02021,0.636844 3.53375,2.073356 c 4.12894,2.422564 3.56579,2.425365 7.76354,-0.03862 z"
       id="path1" /></g></svg>
